<svg width="173" height="58" viewBox="0 0 173 58" fill="none" xmlns="http://www.w3.org/2000/svg">
<path d="M158.594 -5.69406e-05H13.7299C13.2019 -5.69406e-05 12.6802 -5.69406e-05 12.1535 0.00282306C11.7127 0.00570306 11.2753 0.0140695 10.8302 0.0211111C9.8633 0.0324897 8.89863 0.117557 7.94462 0.275573C6.99195 0.43703 6.06913 0.741422 5.20736 1.17845C4.34664 1.61918 3.56018 2.19186 2.8765 2.87572C2.18924 3.55766 1.61635 4.34589 1.17986 5.21009C0.742176 6.07258 0.438682 6.99681 0.279864 7.95087C0.119536 8.90373 0.0332617 9.86757 0.021816 10.8338C0.0084528 11.2753 0.0070416 11.7182 0 12.1598V45.4443C0.0070416 45.8914 0.0084528 46.3246 0.021816 46.7719C0.0332652 47.738 0.119539 48.7018 0.279864 49.6546C0.438244 50.6092 0.741756 51.534 1.17986 52.3968C1.61615 53.2582 2.18912 54.0432 2.8765 54.7214C3.55758 55.4083 4.34456 55.9814 5.20736 56.4187C6.06912 56.8569 6.99185 57.1631 7.94462 57.3271C8.8988 57.4838 9.86336 57.5689 10.8302 57.5817C11.2753 57.5914 11.7127 57.5971 12.1535 57.5971C12.6802 57.5999 13.2019 57.5999 13.7299 57.5999H158.594C159.112 57.5999 159.637 57.5999 160.155 57.5971C160.594 57.5971 161.044 57.5914 161.483 57.5817C162.448 57.5696 163.41 57.4845 164.363 57.3271C165.318 57.162 166.244 56.8558 167.11 56.4187C167.972 55.9811 168.759 55.4081 169.439 54.7214C170.125 54.0406 170.699 53.2561 171.141 52.3968C171.575 51.5334 171.876 50.6087 172.032 49.6546C172.193 48.7017 172.282 47.7381 172.299 46.7719C172.305 46.3246 172.305 45.8914 172.305 45.4443C172.316 44.9212 172.316 44.4009 172.316 43.8693V13.732C172.316 13.2046 172.316 12.6815 172.305 12.1598C172.305 11.7182 172.305 11.2753 172.299 10.8337C172.282 9.86743 172.193 8.9038 172.032 7.95082C171.876 6.99731 171.575 6.07315 171.141 5.21004C170.252 3.47783 168.842 2.06782 167.11 1.17832C166.244 0.74236 165.318 0.438049 164.363 0.275444C163.411 0.116731 162.448 0.0316342 161.483 0.0209095C161.044 0.0138823 160.594 0.00544386 160.155 0.00263586C159.637 -0.000244141 159.112 -0.000244141 158.594 -0.000244141V-5.69406e-05Z" fill="#A6A6A6"/>
<path d="M12.1606 56.34C11.7218 56.34 11.2937 56.3344 10.8584 56.3246C9.95662 56.3129 9.05698 56.2344 8.16682 56.0897C7.33679 55.9468 6.53271 55.6809 5.78111 55.3008C5.0364 54.9238 4.35717 54.4295 3.76943 53.8369C3.17318 53.2512 2.67678 52.5719 2.2999 51.8259C1.91886 51.0751 1.65515 50.2703 1.51798 49.4395C1.36983 48.5469 1.28968 47.6443 1.27822 46.7395C1.26909 46.4358 1.25713 45.4247 1.25713 45.4247V12.1599C1.25713 12.1599 1.26986 11.1642 1.27829 10.8717C1.28927 9.96838 1.36895 9.06719 1.51665 8.17594C1.65408 7.34293 1.91799 6.53581 2.29923 5.78252C2.67473 5.03705 3.16838 4.35725 3.76103 3.76947C4.35302 3.1761 5.03443 2.67928 5.7804 2.29711C6.53028 1.91822 7.33283 1.65418 8.16118 1.51384C9.05427 1.36777 9.95704 1.2888 10.8619 1.27759L12.1613 1.26001H160.148L161.463 1.2783C162.359 1.28895 163.254 1.36722 164.139 1.51243C164.976 1.65453 165.787 1.92042 166.545 2.30133C168.039 3.07151 169.256 4.29 170.023 5.78603C170.398 6.53412 170.658 7.33466 170.793 8.16048C170.943 9.05904 171.026 9.96731 171.044 10.8781C171.048 11.2859 171.048 11.7239 171.048 12.1599C171.059 12.6999 171.059 13.2138 171.059 13.732V43.8693C171.059 44.3925 171.059 44.903 171.048 45.4176C171.048 45.8859 171.048 46.3149 171.042 46.7564C171.025 47.6509 170.943 48.5429 170.796 49.4254C170.662 50.2621 170.399 51.0732 170.018 51.8302C169.639 52.5681 169.145 53.2415 168.556 53.8256C167.968 54.4215 167.287 54.9186 166.541 55.298C165.785 55.6811 164.975 55.948 164.139 56.0897C163.249 56.2351 162.349 56.3136 161.447 56.3246C161.026 56.3344 160.584 56.34 160.155 56.34L158.594 56.3429L12.1606 56.34Z" fill="black"/>
<path d="M35.6672 29.2329C35.6987 26.79 36.9794 24.5335 39.0606 23.254C37.7417 21.3703 35.6118 20.2188 33.3134 20.1469C30.8953 19.8931 28.551 21.5939 27.3188 21.5939C26.0627 21.5939 24.1655 20.1721 22.1225 20.2142C19.4345 20.301 16.9893 21.7922 15.6815 24.1423C12.8966 28.964 14.9739 36.0503 17.6417 39.9478C18.9764 41.8563 20.5363 43.9882 22.5775 43.9126C24.5748 43.8297 25.3208 42.6389 27.7318 42.6389C30.1204 42.6389 30.8203 43.9126 32.9028 43.8645C35.0461 43.8297 36.3965 41.9475 37.6844 40.021C38.6434 38.6611 39.3813 37.1581 39.8709 35.5677C37.3253 34.4911 35.6702 31.9968 35.6672 29.2329Z" fill="white"/>
<path d="M31.7336 17.5839C32.9022 16.181 33.478 14.3779 33.3385 12.5574C31.5532 12.7449 29.904 13.5982 28.7196 14.9472C27.5501 16.2782 26.9576 18.0195 27.0727 19.7876C28.882 19.8062 30.5999 18.994 31.7336 17.5839Z" fill="white"/>
<path fill-rule="evenodd" clip-rule="evenodd" d="M54.0992 39.0811H60.9153L62.5507 43.9144H65.487L59.0309 26.0325H56.0314L49.5753 43.9144H52.4623L54.0992 39.0811ZM60.208 36.8508H54.8051L57.47 29.0067H57.5445L60.208 36.8508Z" fill="white"/>
<path fill-rule="evenodd" clip-rule="evenodd" d="M73.9892 44.0509C77.2615 44.0509 79.43 41.4479 79.43 37.3965C79.43 33.3563 77.2488 30.7407 73.94 30.7407C72.2373 30.6858 70.6424 31.5713 69.7887 33.0455H69.7395V30.8771H67.1491V48.2274H69.8252V41.7699H69.8871C70.7045 43.2534 72.2977 44.1393 73.9892 44.0509ZM73.234 33.0216C75.3153 33.0216 76.6793 34.757 76.6793 37.3965C76.6793 40.0599 75.3153 41.7826 73.234 41.7826C71.1893 41.7826 69.814 40.0234 69.814 37.3965C69.814 34.7935 71.1893 33.0216 73.234 33.0216Z" fill="white"/>
<path fill-rule="evenodd" clip-rule="evenodd" d="M88.3385 44.0508C91.6109 44.0508 93.7793 41.4479 93.7793 37.3965C93.7793 33.3563 91.5982 30.7407 88.2893 30.7407C86.5866 30.6858 84.9917 31.5713 84.138 33.0455H84.0888V30.8771H81.4985V48.2274H84.1746V41.7699H84.2365C85.0539 43.2534 86.6471 44.1393 88.3385 44.0508ZM87.5834 33.0216C89.6646 33.0216 91.0287 34.757 91.0287 37.3965H91.0287C91.0287 40.0599 89.6646 41.7826 87.5834 41.7826C85.5387 41.7826 84.1634 40.0234 84.1634 37.3965C84.1634 34.7935 85.5387 33.0216 87.5834 33.0216Z" fill="white"/>
<path d="M103.263 38.9321C103.461 40.7054 105.184 41.8697 107.538 41.8697C109.794 41.8697 111.417 40.7053 111.417 39.1064C111.417 37.7184 110.438 36.8874 108.12 36.3178L105.803 35.7595C102.519 34.9664 100.995 33.4308 100.995 30.9389C100.995 27.8536 103.684 25.7344 107.502 25.7344C111.28 25.7344 113.87 27.8536 113.958 30.9389H111.256C111.094 29.1544 109.619 28.0772 107.464 28.0772C105.308 28.0772 103.833 29.167 103.833 30.7533C103.833 32.0175 104.775 32.7614 107.08 33.3309L109.05 33.8146C112.719 34.6823 114.243 36.1561 114.243 38.7717C114.243 42.1171 111.578 44.2125 107.34 44.2125C103.374 44.2125 100.697 42.1664 100.524 38.932L103.263 38.9321Z" fill="white"/>
<path d="M120.019 27.7917V30.8771H122.498V32.9963H120.019V40.1836C120.019 41.3002 120.515 41.8205 121.605 41.8205C121.899 41.8154 122.193 41.7947 122.485 41.7586V43.8651C121.995 43.9567 121.497 43.9982 120.999 43.9889C118.359 43.9889 117.33 42.9975 117.33 40.469V32.9963H115.434V30.8771H117.33V27.7917H120.019Z" fill="white"/>
<path fill-rule="evenodd" clip-rule="evenodd" d="M130.117 30.7168C126.35 30.7168 123.934 33.2945 123.934 37.3965C123.934 41.5098 126.326 44.0762 130.117 44.0762C133.91 44.0762 136.302 41.5098 136.302 37.3965C136.302 33.2944 133.897 30.7168 130.117 30.7168ZM130.117 32.9218C132.285 32.9218 133.575 34.5826 133.575 37.3965H133.575C133.575 40.2216 132.285 41.8698 130.117 41.8698C127.948 41.8698 126.66 40.2216 126.66 37.3965C126.66 34.5952 127.948 32.9218 130.117 32.9218Z" fill="white"/>
<path d="M138.508 30.877H141.06V33.096H141.122C141.478 31.6675 142.787 30.6844 144.258 30.7406C144.567 30.7395 144.874 30.773 145.175 30.8404V33.3435C144.786 33.2246 144.38 33.17 143.973 33.1818C143.186 33.1499 142.424 33.4635 141.888 34.0401C141.352 34.6168 141.095 35.399 141.184 36.1814V43.9143H138.508L138.508 30.877Z" fill="white"/>
<path fill-rule="evenodd" clip-rule="evenodd" d="M151.9 44.0762C154.849 44.0762 157.153 42.4519 157.513 40.0852L154.972 40.0852C154.485 41.2949 153.26 42.0407 151.962 41.919C150.988 41.9548 150.046 41.5706 149.375 40.8641C148.704 40.1575 148.368 39.1968 148.454 38.2262V38.0645H157.662V37.1476C157.662 33.1946 155.394 30.7168 151.787 30.7168C148.12 30.7168 145.753 33.369 145.753 37.4584C145.753 41.5351 148.107 44.0762 151.9 44.0762ZM154.985 36.1941L148.467 36.1942C148.465 35.3139 148.814 34.4693 149.438 33.8479C150.061 33.2266 150.907 32.88 151.787 32.8852C152.66 32.8665 153.502 33.2129 154.109 33.841C154.716 34.4691 155.034 35.322 154.985 36.1941Z" fill="white"/>
<path fill-rule="evenodd" clip-rule="evenodd" d="M57.785 15.3145C56.998 14.4997 55.8797 14.0738 54.738 14.1542H51.6192V22.6194H54.738C57.31 22.6194 58.8009 21.0649 58.8009 18.3604C58.9449 17.2472 58.572 16.1293 57.785 15.3145ZM54.5882 21.4222H52.9603V15.3504H54.5882C55.3998 15.3063 56.189 15.62 56.7401 16.2058C57.2911 16.7916 57.5463 17.5882 57.4358 18.3777C57.5549 19.1704 57.3034 19.9737 56.751 20.5643C56.1986 21.1549 55.4041 21.4701 54.5882 21.4222Z" fill="white"/>
<path fill-rule="evenodd" clip-rule="evenodd" d="M61.7611 16.5628C60.7642 17.1693 60.2041 18.2775 60.3158 19.4226C60.202 20.5689 60.7615 21.6792 61.7594 22.287C62.7572 22.8949 64.0204 22.8949 65.0182 22.287C66.0161 21.6792 66.5756 20.5689 66.4618 19.4226C66.5735 18.2775 66.0134 17.1693 65.0165 16.5628C64.0195 15.9563 62.7581 15.9563 61.7611 16.5628ZM63.3909 17.228C64.5045 17.228 65.139 18.0378 65.139 19.4226H65.139C65.139 20.8129 64.5045 21.622 63.3909 21.622C62.2731 21.622 61.6443 20.8185 61.6443 19.4226C61.6443 18.0378 62.2731 17.228 63.3909 17.228Z" fill="white"/>
<path d="M74.6313 22.6194H73.2973L71.9506 17.9143H71.8488L70.5077 22.6194H69.1864L67.3902 16.231H68.6946L69.8619 21.1057H69.958L71.2977 16.231H72.5314L73.8711 21.1057H73.9728L75.1344 16.231H76.4204L74.6313 22.6194Z" fill="white"/>
<path d="M77.9311 16.231H79.169V17.2458H79.2651C79.5993 16.4986 80.3802 16.0415 81.2097 16.1076C81.8519 16.0603 82.4813 16.3019 82.92 16.7641C83.3588 17.2263 83.5594 17.8591 83.4651 18.4837V22.6193H82.1791V18.8003C82.1791 17.7737 81.7241 17.2631 80.773 17.2631C80.3374 17.2432 79.9146 17.4109 79.6156 17.722C79.3165 18.0332 79.1709 18.4569 79.2171 18.882V22.6194H77.9311L77.9311 16.231Z" fill="white"/>
<path d="M85.5142 13.7371H86.8002V22.6193H85.5142V13.7371Z" fill="white"/>
<path fill-rule="evenodd" clip-rule="evenodd" d="M90.0334 16.5626C89.0364 17.1691 88.4762 18.2773 88.5879 19.4225C88.4742 20.5688 89.0338 21.6791 90.0317 22.2869C91.0296 22.8947 92.2928 22.8947 93.2907 22.2869C94.2886 21.6791 94.8482 20.5688 94.7345 19.4225C94.8461 18.2773 94.286 17.1691 93.289 16.5626C92.292 15.956 91.0304 15.956 90.0334 16.5626ZM91.6629 17.2279C92.7765 17.2279 93.411 18.0377 93.411 19.4225H93.4111C93.4111 20.8128 92.7765 21.6219 91.6629 21.6219C90.5452 21.6219 89.9163 20.8183 89.9163 19.4225C89.9163 18.0377 90.5451 17.2279 91.6629 17.2279Z" fill="white"/>
<path fill-rule="evenodd" clip-rule="evenodd" d="M98.5119 18.9056C96.9617 18.9998 96.0883 19.6628 96.0883 20.8127C96.0905 21.358 96.3278 21.8769 96.7417 22.2411C97.1555 22.6054 97.7072 22.781 98.2604 22.7246C99.0495 22.7604 99.7972 22.3772 100.218 21.7216H100.319V22.6194H101.557V18.2544C101.557 16.905 100.636 16.1077 99.0023 16.1077C97.5241 16.1077 96.4713 16.8115 96.3399 17.9088H97.5849C97.7276 17.4571 98.2251 17.1987 98.9429 17.1987C99.8219 17.1987 100.277 17.5797 100.277 18.2544V18.8059L98.5119 18.9056ZM100.277 19.7327V20.2668C100.249 20.674 100.053 21.0525 99.7353 21.3158C99.4173 21.579 99.0038 21.7045 98.5897 21.6634C97.8901 21.6634 97.3814 21.3288 97.3814 20.7538C97.3814 20.1906 97.7884 19.8914 98.6857 19.8325L100.277 19.7327Z" fill="white"/>
<path fill-rule="evenodd" clip-rule="evenodd" d="M105.952 16.1249C104.306 16.1249 103.247 17.4037 103.247 19.4224C103.247 21.4458 104.295 22.7246 105.952 22.7246C106.793 22.7549 107.581 22.3256 107.999 21.61H108.1V22.6193H109.333V13.7371H108.047V17.2457H107.951C107.562 16.5241 106.784 16.0874 105.952 16.1249ZM106.317 21.5927C105.227 21.5927 104.576 20.7773 104.576 19.4224H104.576C104.576 18.0784 105.234 17.2576 106.317 17.2576C107.394 17.2576 108.071 18.0965 108.071 19.4279C108.071 20.7656 107.401 21.5927 106.317 21.5927Z" fill="white"/>
<path fill-rule="evenodd" clip-rule="evenodd" d="M116.098 16.5628C115.102 17.1693 114.541 18.2775 114.653 19.4226C114.539 20.5689 115.099 21.6792 116.097 22.287C117.095 22.8949 118.358 22.8949 119.356 22.287C120.353 21.6792 120.913 20.5689 120.799 19.4226C120.911 18.2775 120.351 17.1693 119.354 16.5628C118.357 15.9563 117.095 15.9563 116.098 16.5628ZM117.728 17.228C118.842 17.228 119.476 18.0378 119.476 19.4226C119.476 20.8129 118.842 21.622 117.728 21.622C116.611 21.622 115.982 20.8185 115.982 19.4226C115.982 18.0378 116.61 17.228 117.728 17.228Z" fill="white"/>
<path d="M122.525 16.231H123.763V17.2458H123.859C124.193 16.4986 124.974 16.0415 125.803 16.1076C126.445 16.0603 127.075 16.3019 127.514 16.7641C127.952 17.2263 128.153 17.8591 128.059 18.4837V22.6193H126.773V18.8003C126.773 17.7737 126.318 17.2631 125.367 17.2631C124.931 17.2432 124.508 17.4109 124.209 17.722C123.91 18.0332 123.764 18.4569 123.811 18.882V22.6194H122.525V16.231Z" fill="white"/>
<path d="M135.325 14.6406V16.2602H136.737V17.3222H135.325V20.6071C135.325 21.2763 135.606 21.5694 136.247 21.5694C136.41 21.5688 136.574 21.5591 136.737 21.5403V22.5904C136.506 22.6309 136.272 22.6525 136.037 22.6549C134.607 22.6549 134.038 22.1616 134.038 20.9299V17.3221H133.003V16.2602H134.038V14.6406H135.325Z" fill="white"/>
<path d="M138.494 13.7371H139.768V17.2575H139.87C140.22 16.5038 141.015 16.0462 141.857 16.1131C142.495 16.0791 143.116 16.3259 143.55 16.7865C143.984 17.2471 144.186 17.8733 144.101 18.4948V22.6193H142.814V18.8058C142.814 17.7854 142.329 17.2686 141.42 17.2686C140.973 17.2326 140.532 17.3921 140.216 17.7044C139.899 18.0166 139.74 18.4498 139.78 18.8882V22.6193H138.494L138.494 13.7371Z" fill="white"/>
<path fill-rule="evenodd" clip-rule="evenodd" d="M148.776 22.7428C150.049 22.8782 151.239 22.0996 151.599 20.8946L150.361 20.8945C150.053 21.4371 149.44 21.743 148.811 21.669C148.326 21.6743 147.861 21.4787 147.531 21.1302C147.2 20.7818 147.035 20.3129 147.076 19.8388V19.7682H151.677V19.3283C151.677 17.3222 150.583 16.1078 148.77 16.1078C147.899 16.1005 147.068 16.4641 146.491 17.1045C145.915 17.7448 145.65 18.5989 145.766 19.4454C145.647 20.2895 145.913 21.1422 146.492 21.7772C147.072 22.4122 147.907 22.7653 148.776 22.7428ZM150.367 18.8358H147.076C147.07 18.3952 147.246 17.9711 147.563 17.6595C147.881 17.3479 148.314 17.1753 148.763 17.1808C149.206 17.1709 149.633 17.3449 149.939 17.6601C150.244 17.9752 150.4 18.4022 150.367 18.8358Z" fill="white"/>
</svg>
