<svg xmlns="http://www.w3.org/2000/svg" width="1080" height="860" viewBox="0 0 1080 860"><g fill="none" fill-rule="evenodd"><g fill="#FFF"><path d="M114.996 453.092a17.316 17.316 0 0 1-.788-5.17c0-9.455 7.555-17.119 16.873-17.119 2.582 0 5.02.607 7.208 1.659-.328-5.563 1.582-11.237 5.771-15.487 4.659-4.726 11.048-6.597 17.097-5.657 4.31-16.285 18.955-28.277 36.367-28.277 20.8 0 37.661 17.108 37.661 38.21a38.562 38.562 0 0 1-2.877 14.662c2.856.054 5.52.886 7.807 2.292 3.797-4.527 9.449-7.402 15.765-7.402 11.43 0 20.696 9.4 20.696 20.996 0 .435-.018.865-.043 1.293H114.996ZM572.584 385.596c0 .88-.1 1.723-.31 2.541h-77.127c.655-3.925 2.98-7.31 6.257-9.43a9.175 9.175 0 0 1-.062-1.012c0-4.914 4.095-8.9 9.128-8.9.73 0 1.423.095 2.091.253 4.34-6.53 11.872-10.84 20.445-10.84 11.156 0 20.556 7.298 23.436 17.258a11.701 11.701 0 0 1 4.726-.998c6.308 0 11.416 4.985 11.416 11.128"/></g><g fill-rule="nonzero"><path fill="#FFF" d="M806.977 555.742v-1.253c.005-4.915-2.56-9.496-6.81-12.165-4.25-2.669-9.605-3.06-14.218-1.039-4.185-14.19-17.438-24.05-32.637-24.28-15.199-.232-28.763 9.222-33.402 23.278a13.205 13.205 0 0 0-1.406 0c-4.138-.007-8.149 1.388-11.34 3.946a13.95 13.95 0 0 0-13.459.18c-4.138 2.363-6.687 6.67-6.705 11.333h119.977Z"/><g transform="translate(0 474.348)"><path fill="#FFF" d="M479.322 287.625c6.057-18.994.265-39.775-14.742-52.89a49.95 49.95 0 0 0-54.35-7.49 58.95 58.95 0 0 0-19.109-47.208 58.844 58.844 0 0 0-48.738-14.665c-10.851-40.241-43.166-71.102-83.838-80.067-40.672-8.966-82.95 5.453-109.69 37.408-26.74 31.955-33.502 76.143-17.544 114.643a46.16 46.16 0 0 0-23.15 6.803c-16.656-19.61-43.759-26.751-67.904-17.892C16.112 235.127.044 258.108 0 283.846c0 1.266 0 2.513.132 3.78h479.19ZM770.155 305.22a32.314 32.314 0 0 1 9.503-34.178 32.25 32.25 0 0 1 35.117-4.828 38.077 38.077 0 0 1 12.341-30.498 38.01 38.01 0 0 1 31.486-9.472c7.033-25.966 27.902-45.869 54.155-51.647 26.254-5.779 53.54 3.525 70.81 24.142 17.268 20.618 21.657 49.132 11.388 73.994 5.281.1 10.442 1.6 14.955 4.347 10.764-12.673 28.283-17.283 43.884-11.549 15.601 5.735 25.973 20.598 25.982 37.232v2.457H770.155Z"/><path fill="#B1DAAD" d="M190.754 275.134h629.818L988.308 385.16H24.057z"/><path fill="#63B55B" d="M234.883 278.346h-34.706L56.025 377.941h900.239l-145.077-99.595H234.883Zm-5.967 4.65c9.763 0 14.37 3.023 9.933 6.727-4.438 3.704-17.372 7.181-27.758 7.181-10.385 0-14.596-3.345-9.441-7.18 5.155-3.837 17.523-6.729 27.266-6.729Zm-109.52 85.363c-13.614 0-17.315-5.67-8.422-12.227 8.498-6.218 26.002-11.34 38.56-11.34 12.556 0 17.126 5.047 9.667 11.34-7.76 6.5-26.096 12.227-39.767 12.227h-.038Zm335.378 0h-294.93c9.78-3.553 17.862-7.786 22.828-12.227 12.029-10.772 1.266-18.898-23.263-18.898-8.691.072-17.36.9-25.907 2.475l53.4-39.1a65.585 65.585 0 0 0 17.108 1.89c21.375 0 45.319-5.86 52.872-12.7 2.851-2.552 2.983-4.876.963-6.728h211.129c-39.031 4.895-72.17 18.067-80.309 35.604-9.441 20.335 17.014 40.613 66.147 49.684h-.038Zm437.95 0c-13.634 0-32.102-5.67-39.92-12.227-7.552-6.218-3.002-11.34 9.556-11.34 12.557 0 30.212 5.047 38.69 11.34 8.97 6.5 5.344 12.227-8.29 12.227h-.037Zm-14.333-28.688a150.018 150.018 0 0 0-25.926-2.475c-24.548 0-35.217 8.164-23.075 18.898 5.004 4.441 13.218 8.674 22.924 12.227H557.666c49.096-9.07 75.267-29.349 65.618-49.76-8.308-17.537-41.542-30.709-80.686-35.604h210.959c-2.002 1.89-1.889 4.177 1.038 6.728 7.704 6.841 31.61 12.7 52.985 12.7a65.321 65.321 0 0 0 16.995-1.89l53.816 39.176Zm-77.986-42.767c-10.386 0-23.188-3.345-27.814-7.18-4.627-3.837.094-6.729 9.856-6.729 9.763 0 22.169 3.024 27.248 6.728 5.08 3.704 1.133 7.181-9.252 7.181h-.038Z"/><path fill="#B1DAAD" d="m493.767 351.52 1.888-48.285-26.436 6.218 1.567-10.659 27.588-6.368h27.871l5.665 59.095z"/><path fill="#63B55B" d="m794.627 293.918-8.327-6.482-3.06.964-2.114-1.663 3.436-1.001h4.872l10.801 8.24zM883.603 363.219l-14.087-10.98-3.512 1.606-3.531-2.797 3.776-1.776h6.307l18.222 13.947zM212.64 293.918l8.365-6.482-5.533.964 2.19-1.663 6.08-1.001h4.872l-10.536 8.182zM123.003 363.219l14.2-10.98-7.667 1.606 3.682-2.797 8.347-1.776h6.306l-17.655 13.947zM750.384 317.031l1.624-1.909-7.137-1.096-.246-2.078-7.194-.549-2.02-2.116h-6.836l-3.607-1.984-6.08.529-4.966-1.777-4.966 1.02-6.005-1.436-3.588 1.437-6.666-1.02-2.001 1.776-6.968-.53-.283 1.985h-6.836l1.51 2.116-6.287.549 3.229 2.078-5.325 1.096 4.815 1.91-3.946 1.568 6.118 1.606-2.248 2.003 7.044 1.153-.302 2.287 7.496.605 1.7 2.419h7.402l3.682 2.38 6.703-.642 5.42 2.155 5.476-1.248 6.76 1.758 3.814-1.758 7.553 1.248 1.832-2.155 7.76.643-.264-2.381h7.383l-2.303-2.42 6.458-.604-4.098-2.287 5.098-1.153-5.57-2.003 3.456-1.606zM341.08 318.6c-5.08 7.786-29.853 14.381-55.024 14.381-25.17 0-38.974-6.67-31.213-14.457 7.307-7.332 31.232-12.964 53.816-12.964 22.583 0 37.218 5.707 32.421 13.04Z"/><path fill="#63B55B" d="m323.5 317.58 3.192-1.248-3.437-.718 2.172-1.38-4.098-.359 1.039-1.398h-4.495l-.15-1.342-4.608.359-1.284-1.19-4.419.68-2.379-.964-3.946.964-3.305-.68-3.248 1.19-4.022-.36-2.341 1.343h-4.513l-1.265 1.398-4.702.36-.095 1.379-4.607.718 1.133 1.247-4.211 1.02 2.304 1.04-3.512 1.285 3.342.756-2.55 1.455 4.174.397-1.379 1.531h4.74l-.095 1.493 4.948-.397 1.227 1.342 4.796-.775 2.455 1.096 4.287-1.096 3.493.775 3.455-1.342 4.287.397 2.38-1.493h4.72l1.152-1.53 4.834-.398-.151-1.455 4.57-.756-1.398-1.285 4.022-1.04z"/><path fill="#60595C" d="m319.724 337.48 36.557-10.338 36.746-8.599 1.095-22.281 346.066 18.275 50.134 16.781c-38.144 9.09-36.86 2.022-50.795 4.026-21.413 3.061-30.1.415-32.913-2.873l-266.682 7.805-46.905-7.56-21.829 2.836-38.086 9.808-5.476 9.79-26.04-19.447 18.128 1.776Z" opacity=".41" style="mix-blend-mode:multiply"/><ellipse cx="420.078" cy="50.323" fill="#BA9073" rx="37.451" ry="37.469" transform="rotate(-26.64 420.078 50.323)"/><path fill="#BA9073" d="m448.977 74.074-13.218 32.127s-32.214-18.71-43.43-31.409c-11.217-12.7 56.648-.718 56.648-.718Z"/><path fill="#BA9073" d="m390.213 74.357-17.598 27.422 28.324 13.91 12.5-25.608zM384.492 131.94l67.657 57.452 62.899-5.33 12.217 12.832-71.245 16.763-35.972-9.43z"/><path fill="#223E6B" d="m456.001 263.946 118.056-36.984 137.391 78.296-9.97 10.715-155.538-51.177-98.53 45.148-46.49-194.294c18.128 49.609 37.973 130.399 55.081 148.296Z"/><path fill="#BA9073" d="m704.971 309.623-2.247 1.228c-4.362 2.382-13.69 7.257-14.445 5.953a11.674 11.674 0 0 0-1.888-1.89c-.642-.585-1.398-1.228-2.172-1.89a199.818 199.818 0 0 0-5.873-4.61l5.118-8.335.415-.68 13.52 6.558 2.493 1.19 5.08 2.476Z"/><path fill="#696366" d="M750.196 309.623s-1.19 1.172-11.878 4.762c-3.663 1.248-8.44 2.76-14.69 4.612a268.327 268.327 0 0 1-12.539 3.44l-1.737.415c-12.444 2.91-17.315 2.683-17.882 2.646l-5.382-10.394.378-.208 11.67-6.69 1.888-1.04 3.437-1.89c4.343.208 8.78.473 13.218.7 3.002.17 5.985.302 8.875.397 9.44.302 17.9.094 23.754-1.588l.378 1.758.51 3.08Z"/><path fill="#FDF0F3" d="M751.102 311.248s-1.322 1.285-13.596 5.33c-3.399 1.134-7.666 2.456-12.972 4.044-4.985 1.474-9.272 2.627-12.935 3.515h-.283c-14.106 3.402-18.996 2.91-18.996 2.91l-.85-1.625c.567 0 5.438.265 17.882-2.646l1.737-.415a268.325 268.325 0 0 0 12.538-3.44c6.25-1.89 11.028-3.364 14.691-4.611 10.688-3.59 11.878-4.763 11.878-4.763l.906 1.701Z"/><path fill="#9B2F4B" d="m699.269 305.087-1.889.889-1.888.85-5.891 2.797-5.495 3.42-59.104-20.655-79.062-27.592-98.53 45.148-3.777-15.855a138.172 138.172 0 0 0 14.275-18.672c4.853-1.474 2.493-7.56 20.413-20.788l116.224-36.417 104.724 86.875Z"/><path fill="#0A0005" d="M711.316 324.213c-14.106 3.401-18.996 2.91-18.996 2.91l-.85-1.625-5.382-10.394.378-.208c-.642-.586-1.397-1.229-2.171-1.89l-59.293-20.618c17.278 1.417 49.832 4.1 50.7 3.874a51.947 51.947 0 0 1 7.78 3.78c3.588 1.89 7.97 4.384 12.142 6.727.831.473 1.643.945 2.455 1.38l4.645 2.646 5.08 2.891 2.379 1.36.906 7.333.208 1.626.019.208Z" opacity=".26" style="mix-blend-mode:multiply"/><path fill="#2D4E9D" d="M372.615 101.779s-28.325 41.576-21.527 68.318c5.778 22.678 37.332 112.917 49.379 146.197l1.17.435s2.342 6.784 2.87 8.277c4.533 12.473 33.574 16.045 71.359 11.51 37.256-4.48 115.525-58.586 115.525-58.586 12.86-11.452 0-41.878 0-41.878L457.89 275.417c-37.766-23.699-15.107-103.072-56.97-159.767l-28.305-13.871Z"/><path fill="#223E6B" d="m393.858 167.64-15.635 85.477s-10.178-29.614-10.423-30.483c-.246-.87 26.058-54.994 26.058-54.994Z"/><path fill="#BA9073" d="M363.57 126.29a18.898 18.898 0 0 0-7.874 11.434l-18.883 82.359-42.147 118.568h17.826l55.93-109.1 21.905-51.026a58.63 58.63 0 0 0 2.303-40.008l-2.209-7.332c-6.164-8.616-18.047-10.782-26.851-4.895Z"/><path fill="#BA9073" d="m267.173 346.588 4.305-8.013 10.518-2.475 3.663-3.308h11.727l8.006 5.783h7.1l12.595 6.785 2.492 9.865h-3.342a7.743 7.743 0 0 1-7.553-5.67l-.283-1.077-6.194 2.154-10.763-.378-5.665 5.009h-22.225l-4.381-8.675Z"/><path fill="#514438" d="M457.399 47.9a143.046 143.046 0 0 0-25.945 14.948 122.097 122.097 0 0 1-18.883 11.51 76.295 76.295 0 0 1-5.363 2.343c-11.5 4.592-18.75 4.441-20.658 4.29h-.51v-.114a35.92 35.92 0 0 1-1.7-3.628 79.682 79.682 0 0 1-3.096-8.977 123.123 123.123 0 0 1-4.55-33.885c0-17.008 24.547-35.906 49.095-30.237 24.547 5.67 36.802 32.694 31.61 43.75Z"/><path fill="#514438" d="M386.55 81.01s-11.518 11.036-19.128 9.449c-9.196-1.89-12.085 3.78-14.351 4.592l-3.342-4.668c-12.33 0-14.276-4.838-14.276-4.838v-.321l1.096-5.896.094-.567a6.314 6.314 0 0 1-3.38-7.71c1.548-6.86 10.744-14.345 22.886-7.22 8.516 4.99 20.148 3.78 24.906 4.441l1.247.17 2.247 7.862 1.303 4.573.566.152.132-.02Z"/><path fill="#BA9073" d="m414.459 81.633 5.306 14.4 11.934 7.088 4.06 3.08 5.193-7.88s2.322-.208 2.983-1.134c.661-.926-.189-1.89-.189-1.89l.586-1.266s1.265.623 1.888 0c.623-.624 1.114-5.349 1.114-5.349l3.38 1.267a2.34 2.34 0 0 0 3.078-2.4l-2.455-16.915-36.878 11ZM372.917 101.93s19.94 28.99 35.443 25.173l-7.364-11.566-28.08-13.607Z"/><path fill="#2D4E9D" d="m408.36 127.103 37.482 61.778s-5.91 17.18-14.86 19.296c0 .075-27.324-24.852-22.622-81.074Z"/><path fill="#60595C" d="m286.641 355.225-2.36-8.202 8.384-11.396-4.192 10.923-.718 8.675h4.438l3.153-7.257h10.442l3.003-2.533 8.535 2.533 5.363 7.257H303.56zM410.682 95.675c-1.775.208.454-14.798 2.36-21.507.832-2.948 7.554-14.59 7.554-14.59l-6.609 15.12.68 12.265 21.167 19.238c-7.1-4.082-14.936-9.128-23.15-14.665l-2.002 4.139Z" opacity=".23" style="mix-blend-mode:multiply"/><path fill="#BA9073" d="M429.565 57.065c-7.024-4.686-15.106 9.45-16.994 15.12-1.889 5.669 5.665 3.779 5.665 3.779s16.994-15.119 11.33-18.899ZM707.728 313.46s2.21 5.896 1.624 9.165c-.585 3.27 24.906 2.797 24.906 2.797l5.288-14.363a33.065 33.065 0 0 1-14.861-5.178c-7.478-4.857-16.957 7.578-16.957 7.578Z"/><path fill="#E94368" d="M591.391 236.09 457.89 275.417s-26.814 44.071-56.385 41.293l3.003 8.296c4.532 12.473 33.573 16.045 71.358 11.51 37.256-4.48 115.525-58.586 115.525-58.586 26.606 17.576 91.223 20.619 117.829 41.029a30.399 30.399 0 0 0 19.034-12.057l-119.83-70.453-17.033-.36Z"/><path fill="#696366" d="M790.322 331.318s-14.842 7.88-47.604 3.043c-16.843-2.495-22.168 3.477-29.948 0a9.155 9.155 0 0 1-.963-.491c-6.42-3.667-2.455-11.34-2.455-11.34s20.205 0 21.904-3.514a63.296 63.296 0 0 1 6.175-9.45l53.117 14.212-.17 5.16-.056 2.38Z"/><path fill="#FDF0F3" d="M790.322 331.318s-14.842 7.88-47.604 3.043c-16.843-2.495-22.168 3.477-29.948 0a9.155 9.155 0 0 1-.963-.491l22.546-3.156s15.843 2.834 21.998 2.456c6.156-.378 28.929-1.096 33.99-4.252l-.02 2.4Z"/><path fill="#514438" d="M458.57 43.364c7.08-.246.622 18.01-19.979 19.749-14.69 1.266-36.481-3.364-36.481-3.364s33.347 2.4 38.672 0c6.401-2.873 13.085-11.339 11.537-11.85l6.25-4.535Z"/><path fill="#413020" d="M385.908 80.84s13.445-2.023 21.225-4.14c-11.5 4.593-18.751 4.442-20.658 4.29 0 0-11.519 11.037-19.129 9.45-9.196-1.89-12.085 3.78-14.35 4.592l-3.343-4.668c-12.33 0-14.275-4.838-14.275-4.838v-.32c3.776 1.114 11.216 3.06 12.953 2.38 2.417-.907 14.974-1.474 14.974-1.474s18.052-3.364 22.603-5.272Z"/><path fill="#392B1D" d="M412.57 74.357c-.188.454-1.076.945-2.416 1.437l2.417-1.437Z"/><path fill="#413020" d="M350.767 76.7a28.606 28.606 0 0 1-14.162 2.59l.095-.567a6.314 6.314 0 0 1-3.38-7.71c3.814 8.447 18.335 5.31 17.447 5.688Z"/><path fill="#60595C" d="m275.425 342.28-2.851 4.422 2.85 8.523h4.268l-3.55-7.88 2.908-6.653z" opacity=".23" style="mix-blend-mode:multiply"/><path fill="#514438" d="M450.733 66.269a11.446 11.446 0 0 0-2.02-1.758 13.838 13.838 0 0 0-2.436-1.322 9.963 9.963 0 0 0-5.665-.567c.933-.32 1.904-.518 2.889-.586a11.32 11.32 0 0 1 2.964.264 13.21 13.21 0 0 1 2.87 1.002 12.63 12.63 0 0 1 2.644 1.625.95.95 0 0 1-1.17 1.493l-.114-.113.038-.038ZM443.935 67.856c.906-.094 1.888-.17 2.738-.189a12.17 12.17 0 0 1 1.435 0c.252-.016.504-.016.756 0 .38.064.733.234 1.02.492a.945.945 0 1 1-1.417 1.228c.132 0 0 0-.151-.151s-.34-.17-.529-.265c-.189-.094-.812-.302-1.246-.434a38.137 38.137 0 0 0-2.625-.7l.02.02Z"/><ellipse cx="446.98" cy="71.266" fill="#514438" rx="2.611" ry="1.116" transform="rotate(-55.993 446.98 71.266)"/><path fill="#FFF" d="m444.332 93.974-5.042-4.555a5.672 5.672 0 0 0 1.416 4.064c.92.757 1.884 1.458 2.89 2.097l.736-1.606Z"/><path fill="#514438" d="M424.694 55.176c-.764.59-1.495 1.22-2.19 1.89-.756.699-1.474 1.455-2.191 2.21a37.526 37.526 0 0 0-3.966 4.839 30.772 30.772 0 0 0-3.172 5.386c-.472.945-.793 1.89-1.19 2.91-.396 1.02-.85 2.343-1.36 3.496a21.708 21.708 0 0 1-9.97 11.188 18.34 18.34 0 0 1-14.105.605c4.44.586 8.937-.543 12.576-3.156a18.032 18.032 0 0 0 6.288-10.451 30.26 30.26 0 0 0 .604-3.118c.193-1.273.451-2.534.775-3.78a38.497 38.497 0 0 1 2.605-7.144 46.254 46.254 0 0 1 3.777-6.538c.718-1.059 1.51-2.041 2.323-3.024a34.592 34.592 0 0 1 2.738-2.967l6.458 7.654Z"/><path fill="#918C8E" d="m533.308 207.194-17.694-13.947c-.358-.283-.226-1.53.302-2.778l31.12-75.216c.49-1.171 1.264-2.154 1.718-2.173l23.188-1.36 1.473.888c.434.208.434 1.228 0 2.457l-36.463 90.617a2.475 2.475 0 0 1-1.51 1.588c-.71.1-1.433.075-2.134-.076Z"/><path fill="#C2BFC0" d="m533.213 207.118-18.543-14.287c-.359-.283-.226-1.53.283-2.797l31.214-75.329c.49-1.171 1.265-2.154 1.737-2.173l23.83-.87c.661 0 .736 1.116.151 2.533l-36.576 90.863c-.66 1.55-1.586 2.457-2.096 2.06Z"/><path fill="#474044" d="m569.865 115.65-33.8 83.72c-.246.586-.605.945-.794.813l-17.957-12.568c-.151-.094-.095-.586 0-1.077l29.325-70.566c.189-.473.49-.85.68-.85l22.47-.379c.264 0 .283.435.076.907Z"/><path fill="#847F82" d="m543.523 180.963-7.553 18.483c-.245.585-.604.945-.793.812l-17.958-12.567c-.15-.095-.094-.586 0-1.077l19.412-46.396 6.892 40.745ZM525.056 196.497c.197-.51.275-1.06.226-1.606a.416.416 0 0 0-.17-.321c-.302-.227-.868.378-1.284 1.36a7.261 7.261 0 0 0-.245.775c-.164.433-.164.91 0 1.342.302.227.887-.378 1.303-1.38.053-.06.11-.116.17-.17Zm-1.322 1.456c-.189-.17-.189-.7 0-1.323 0-.19.132-.416.208-.624.358-.87.887-1.436 1.17-1.228.074.062.121.15.133.245a2.988 2.988 0 0 1-.265 1.645c-.453.926-1 1.493-1.246 1.285Z"/><path fill="#CECCCD" d="m523.715 197.915-.113.132a1.891 1.891 0 0 1 0-1.342l.094-.113c-.17.624-.17 1.153.019 1.323ZM525.056 196.497l-.132.133a2.988 2.988 0 0 0 .264-1.644l.094-.095a3.574 3.574 0 0 1-.226 1.606Z"/><path fill="#BA9073" d="M515.199 172.138c.66-.322 6.514-11 6.514-11l7.082-4.932-.34 2.854a7.998 7.998 0 0 1-.945 2.268l-2.077 3.44-5.891 14.532-2.832 6.52-1.662-1.758.15-11.924Z"/></g></g></g></svg>