<?xml version="1.0" encoding="utf-8"?>
<!-- Generator: Adobe Illustrator 27.0.0, SVG Export Plug-In . SVG Version: 6.00 Build 0)  -->
<svg version="1.1" id="Layer_1" xmlns="http://www.w3.org/2000/svg" xmlns:xlink="http://www.w3.org/1999/xlink" x="0px" y="0px"
	 viewBox="0 0 88 48" style="enable-background:new 0 0 88 48;" xml:space="preserve">
<style type="text/css">
	.st0{fill-rule:evenodd;clip-rule:evenodd;}
	.st1{fill:#FFDD00;}
	.st2{fill:#FFFFFF;}
</style>
<rect id="Rectangle-Copy-2_00000105397358270492898290000015194360294321656766_" class="st0" width="88" height="48"/>
<g>
	<g>
		<path class="st1" d="M17,30.3c1.5,2.6,4,2.6,5.5,0l0.8-1.5l-7.6-13.1H8.6L17,30.3z"/>
		<path class="st1" d="M32.9,24.7c-0.6,1-1.9,1-2.4,0l-5.2-9h-7.2l8.4,14.6c1.5,2.6,4,2.6,5.5,0l5.6-9.8l-2.8-4.8h-7.2L32.9,24.7z"
			/>
	</g>
	<g>
		<path class="st2" d="M42.6,23.4h1.5l0,0c0.9-3.4,1.3-4.8,1.4-5.7c0.1,0.9,0.5,2.4,1.4,5.7l0,0h1.5l2.1-7.7h-1.4l0,0
			c-0.9,3.5-1.3,4.9-1.4,5.8c-0.2-1-0.6-2.6-1.4-5.8l0,0h-1.4l0,0c-0.9,3.5-1.3,5-1.4,5.9c-0.2-0.9-0.6-2.5-1.5-5.9l0,0h-1.4
			L42.6,23.4L42.6,23.4z"/>
		<path class="st2" d="M52.8,23.5c1.1,0,2.2-0.6,2.6-1.5l-1-0.5l0,0l0,0c-0.1,0.3-0.6,0.9-1.5,0.9c-0.9,0-1.5-0.5-1.6-1.3h4.4l0-0.1
			c0-1.1-0.3-2-0.8-2.6c-0.5-0.5-1.2-0.8-2-0.8c-0.8,0-1.5,0.3-2.1,0.9c-0.5,0.5-0.8,1.3-0.8,2.1C49.9,22.3,51.1,23.5,52.8,23.5z
			 M52.7,18.8c0.8,0,1.4,0.5,1.5,1.2h-3C51.3,19.3,51.9,18.8,52.7,18.8z"/>
		<path class="st2" d="M58.4,23.5c1.4,0,2.3-0.7,2.3-1.7c0-1.3-1.2-1.6-2.1-1.8c-0.6-0.2-1.2-0.3-1.2-0.7c0-0.3,0.3-0.6,0.8-0.6
			c0.5,0,0.9,0.3,1,0.7l0,0.2l0,0l1.1-0.2c0-1.1-0.9-1.8-2.2-1.8c-1.3,0-2.1,0.7-2.1,1.7c0,1.2,1.1,1.5,2,1.7
			c0.7,0.2,1.2,0.3,1.2,0.8c0,0.4-0.4,0.6-0.9,0.6c-0.7,0-1.2-0.3-1.2-0.9l0-0.1L56,21.7C56,22.9,57.3,23.5,58.4,23.5z"/>
		<path class="st2" d="M61.7,22.4c0,0.6,0.4,1.2,1.1,1.2c0.8,0,1.1-0.1,1.1-0.1v-1.1c0,0-0.2,0-0.6,0c-0.2,0-0.3-0.1-0.3-0.3v-3.3
			h0.9l0-1.1H63v-1.6l-1.3,0.3v1.3h-0.7l0,1.1h0.7V22.4z"/>
		<path class="st2" d="M71.6,18.5v-0.7h-1.1v5.7h1.3l0-3.5c0-0.3,0.1-0.6,0.3-0.8c0.3-0.2,0.7-0.3,1.3-0.2l0.1,0l0-1.2l-0.1,0
			C72.7,17.6,72,17.9,71.6,18.5z"/>
		<path class="st2" d="M77.2,17.7c-0.8,0-1.6,0.3-1.9,0.9v-0.8h-1.2v5.7h1.3v-3c0-1,0.5-1.6,1.4-1.6c0.6,0,1.3,0.3,1.3,1.5v3.1h1.3
			v-3.3C79.4,18.3,78.3,17.7,77.2,17.7z"/>
		<path class="st2" d="M46,29c0,1.3-0.6,2-1.7,2c-1.1,0-1.7-0.7-1.7-2v-4.5h-1.4v4.5c0,2.1,1.2,3.3,3.1,3.3c1.9,0,3.1-1.2,3.1-3.3
			v-4.5H46V29z"/>
		<path class="st2" d="M51.2,26.4c-0.8,0-1.6,0.3-1.9,0.9v-0.8h-1.2v5.7h1.3v-3c0-1,0.5-1.6,1.4-1.6c0.6,0,1.3,0.3,1.3,1.5v3.1h1.3
			v-3.3C53.4,27,52.3,26.4,51.2,26.4z"/>
		<rect x="54.3" y="26.5" class="st2" width="1.3" height="5.7"/>
		<path class="st2" d="M54.9,24.4c-0.4,0-0.8,0.3-0.8,0.8c0,0.4,0.3,0.8,0.8,0.8c0.4,0,0.8-0.3,0.8-0.8
			C55.7,24.7,55.4,24.4,54.9,24.4z"/>
		<path class="st2" d="M59.2,26.4c-0.8,0-1.6,0.3-2.1,0.8c-0.5,0.5-0.8,1.3-0.8,2.1c0,1.7,1.3,2.9,3,2.9c1.7,0,3-1.2,3-2.9
			c0-0.8-0.3-1.6-0.9-2.1C60.8,26.7,60.1,26.4,59.2,26.4z M59.2,31c-1,0-1.7-0.7-1.7-1.7c0-1,0.7-1.7,1.7-1.7c1,0,1.7,0.7,1.7,1.7
			C60.9,30.3,60.2,31,59.2,31z"/>
		<path class="st2" d="M65.9,26.4c-0.8,0-1.6,0.3-1.9,0.9v-0.8h-1.2v5.7h1.3v-3c0-1,0.5-1.6,1.4-1.6c0.6,0,1.3,0.3,1.3,1.5v3.1h1.3
			v-3.3C68.2,27,67,26.4,65.9,26.4z"/>
		<path class="st2" d="M67.1,17.7c-0.8,0-1.5,0.3-2.1,0.9c-0.5,0.5-0.8,1.3-0.8,2.1c0,1.7,1.2,2.9,2.9,2.9c1.1,0,2.2-0.6,2.6-1.5
			l-1-0.5l0,0l0,0c-0.1,0.3-0.6,0.9-1.5,0.9c-0.9,0-1.5-0.5-1.6-1.3h4.4l0-0.1c0-1.1-0.3-2-0.8-2.6C68.6,17.9,67.9,17.7,67.1,17.7z
			 M65.5,20c0.1-0.7,0.7-1.2,1.5-1.2c0.8,0,1.4,0.5,1.5,1.2H65.5z"/>
	</g>
</g>
</svg>
