<svg width="922" height="697" viewBox="0 0 922 697" fill="none" xmlns="http://www.w3.org/2000/svg">
<path fill-rule="evenodd" clip-rule="evenodd" d="M627.841 -18L430.518 79.5118L412.58 70.644L412.61 70.6302L591.959 -18H556.091L396.075 61.0763L394.651 61.7812L376.705 52.914L376.71 52.9126L376.713 52.9133L520.211 -18H484.329L359.241 43.8158L358.767 44.049V44.0563L233.192 -18H197.326L501.802 132.464L502.276 132.699L645.777 61.7848L663.711 70.6461L502.752 150.188L502.277 150.423V150.429L161.446 -18H125.568L501.803 167.92L502.277 168.156L681.654 79.5118L699.594 88.3768L502.747 185.655L502.278 185.886L89.6962 -18H53.8122L0 8.59204V26.3227L71.2821 -8.90248L71.7529 -9.13503L501.796 203.38L502.271 203.614L717.53 97.2389L735.472 106.104L502.278 221.343L72.222 8.82819L71.747 8.59348L0 44.0483V61.779L71.2821 26.5531L71.7529 26.3213L501.803 238.839L502.278 239.073L753.413 114.97L771.348 123.831L502.749 256.565L502.275 256.8V256.802L71.7538 44.0527L0 79.5118V97.2396L71.7478 61.7848L89.6827 70.6461L0 114.965V132.697L107.624 79.5118L125.566 88.3768L0 150.427V168.154L143.5 97.2389L161.442 106.104L0 185.884V203.616L179.385 114.97L197.319 123.831L0 221.341V239.073L214.787 132.929L215.261 132.696V132.694L484.339 265.665L466.399 274.53L215.738 150.659L215.264 150.425L0 256.8V274.528L214.789 168.385L215.26 168.154V168.156L448.457 283.395L430.524 292.258L215.738 186.116L215.264 185.881L0 292.26V309.989L214.789 203.847L215.263 203.614L412.584 301.123L394.643 309.989L215.73 221.577L215.255 221.341L0 327.716V345.448L214.789 239.304L215.262 239.069L376.71 318.852L358.769 327.717L215.738 257.037L215.263 256.801L0 363.176V380.904L71.2804 345.681L71.7529 345.445L501.802 557.963L502.276 558.199L645.78 487.283L663.714 496.145L502.752 575.688L502.277 575.922V575.929L72.2288 363.411L71.7538 363.176L0 398.635V416.361L71.2821 381.135L71.7478 380.907L501.803 593.42L502.277 593.655L681.656 505.01L699.598 513.875L502.747 611.155L502.278 611.386L72.2288 398.868L71.7538 398.633L0 434.093V451.823L71.7529 416.364L501.796 628.88L502.271 629.114L717.533 522.737L735.474 531.603L502.746 646.612L502.279 646.843L502.278 646.842L502.277 646.843L72.222 434.327L71.747 434.093L0 469.548V487.279L71.2821 452.053L71.7529 451.821L501.803 664.339L502.278 664.573L753.416 540.468L771.351 549.329L502.749 682.066L502.275 682.3V682.303L71.7538 469.551L0 505.01V522.74L71.7504 487.283L89.6852 496.145L0 540.465V558.196L107.628 505.01L125.568 513.875L0 575.928V593.653L143.504 522.737L161.445 531.603L0 611.384V629.116L179.387 540.468L197.322 549.329L0 646.84V664.573L214.787 558.43L215.261 558.195V558.194L484.339 691.165L466.4 700.03L215.738 576.161L215.264 575.927L0 682.301V700.03L214.789 593.885L215.26 593.652V593.656L448.457 708.896L430.525 717.759L215.738 611.617L215.264 611.383L0 717.76V735.488L214.789 629.348L215.263 629.114L412.584 726.624L394.643 735.49L215.73 647.077L215.255 646.842L0 753.217V770.947L214.789 664.803L215.262 664.569L376.71 744.352L358.769 753.218L215.738 682.536L215.263 682.301L0 788.676V806.404L71.2804 771.181L71.7529 770.946L197.326 833H233.193L89.6827 762.082L107.624 753.215L269.076 833H304.956L125.563 744.35L143.498 735.488L340.824 833H376.701L788.819 629.348L789.292 629.114L986.614 726.624L968.672 735.49L789.759 647.077L789.284 646.842L412.583 833H448.462L788.819 664.803L789.29 664.569L950.74 744.352L932.798 753.218L789.767 682.536L789.292 682.301L484.33 833H520.211L645.309 771.181L645.782 770.946L771.354 833H807.222L663.713 762.082L681.653 753.215L843.105 833H878.985L699.594 744.35L717.528 735.488L914.853 833H950.73L1148.06 735.488V717.76L932.798 824.137V824.136L932.795 824.139V824.136L735.468 726.622L753.408 717.756L932.324 806.172L932.798 806.406L1148.06 700.03V682.301L933.274 788.438L932.798 788.659V788.681L771.342 708.894L789.282 700.028L932.324 770.715L932.798 770.95L1148.06 664.573V646.84L1076.78 682.066L1076.3 682.3V682.303L645.783 469.551L502.756 540.232L502.282 540.472L484.334 531.605L645.311 452.053L645.782 451.821L1075.83 664.339L1076.31 664.573L1148.06 629.116V611.384L1076.78 646.612L1076.31 646.843L646.251 434.327L645.776 434.093L467.822 522.033L467.13 522.396L466.398 522.737L466.393 522.739L448.458 513.876L645.311 416.598L645.782 416.365V416.364L1075.83 628.88L1076.3 629.114L1148.06 593.653V575.928L1076.78 611.155L1076.31 611.386L646.257 398.868L645.782 398.633L430.519 505.011L412.58 496.143L412.61 496.13L645.311 381.135L645.777 380.907L1075.83 593.42L1076.31 593.655L1148.06 558.196V540.465L1076.78 575.688L1076.31 575.922V575.929L646.257 363.411L645.782 363.176L396.075 486.577L394.651 487.28H394.653L394.652 487.282L376.706 478.415L376.711 478.413L376.713 478.413L645.309 345.681L645.782 345.445L1075.83 557.963L1076.31 558.199L1148.06 522.74V505.011L1076.78 540.232L1076.31 540.472L1058.36 531.605L1148.06 487.279V469.548L1040.42 522.739L1022.49 513.878L1022.5 513.876L1022.49 513.874L1148.06 451.823V434.093L1004.55 505.011L986.608 496.143L986.639 496.13L1148.06 416.361V398.635L968.68 487.28L968.682 487.282L950.94 478.516V478.515L950.738 478.415L1148.06 380.904V363.176L933.271 469.315L932.797 469.55V469.555L663.713 336.581L681.653 327.715L932.324 451.589L932.798 451.825L1148.06 345.448V327.716L933.269 433.861L932.795 434.095V434.092L699.594 318.85L717.528 309.987L932.317 416.13L932.791 416.365L1148.06 309.989V292.26L933.269 398.405L932.795 398.637V398.635L735.468 301.122L753.408 292.257L932.324 380.672L932.798 380.907L1148.06 274.528V256.8L933.274 362.939L933.084 363.047L932.798 363.161V363.181L771.342 283.393L789.282 274.528L932.324 345.216L932.798 345.45L1148.06 239.073V221.341L1076.78 256.565L1076.3 256.8V256.802L645.782 44.0527L502.756 114.733L502.275 114.944V114.97L484.334 106.105L645.311 26.5531L645.782 26.3213L1075.83 238.839L1076.31 239.073L1148.06 203.616V185.884L1076.31 221.343L646.251 8.82819L645.776 8.59348L467.822 96.5333L467.131 96.8944L466.4 97.2367L466.379 97.2266L466.373 97.2309L448.459 88.3768L645.311 -8.90248L645.782 -9.13503L1075.83 203.38L1076.3 203.614L1148.06 168.154V150.427L1076.78 185.655L1076.31 185.886L663.725 -18H627.841ZM788.816 132.929L789.29 132.696V132.694L1058.37 265.665L1040.43 274.53L789.768 150.659L789.293 150.425L359.245 362.939L359.009 363.073L358.769 363.176V363.172L358.759 363.176L197.313 283.393L215.253 274.528L358.295 345.216L358.769 345.45L788.816 132.929ZM788.819 168.385L789.289 168.154V168.156L1022.49 283.395L1004.55 292.258L789.767 186.116L789.292 185.881L359.24 398.405L358.767 398.637V398.635L161.438 301.122L179.378 292.257L358.295 380.672L358.769 380.907L788.819 168.385ZM788.819 203.847L789.292 203.614L986.614 301.123L968.672 309.989L789.759 221.577L789.284 221.341L359.24 433.861L358.767 434.095V434.092L125.563 318.85L143.498 309.987L358.288 416.13L358.762 416.365L788.819 203.847ZM788.819 239.304L789.29 239.069L950.74 318.852L932.798 327.717L789.767 257.037L789.292 256.801L359.241 469.315L358.767 469.55V469.556L89.6827 336.581L107.624 327.715L358.295 451.589L358.77 451.825L788.819 239.304ZM789.293 558.194L1058.37 691.165L1040.43 700.03L789.768 576.161L789.293 575.927L359.245 788.438L358.765 788.679L197.313 708.894L215.253 700.028L358.295 770.715L358.769 770.95L788.816 558.43L789.29 558.195V558.194L789.292 558.195L789.293 558.194ZM788.819 593.885L789.289 593.652V593.656L1022.49 708.896L1004.55 717.759L789.767 611.617L789.292 611.383L358.769 824.137V824.136L358.767 824.139V824.136L161.438 726.622L179.378 717.756L358.295 806.172L358.769 806.406L788.819 593.885Z" fill="black" fill-opacity="0.03"/>
<path fill-rule="evenodd" clip-rule="evenodd" d="M699.534 -18L1075.82 167.893L1076.3 168.129L1148.06 132.675V114.946L1076.77 150.164L1076.3 150.398V150.405L735.417 -18H699.534Z" fill="black" fill-opacity="0.03"/>
<path fill-rule="evenodd" clip-rule="evenodd" d="M1130.62 -18L969.04 61.6691L951.286 52.9161V52.9154L951.082 52.8144L1094.71 -18H1058.8L933.601 43.7289L933.126 43.9619V43.9691L807.443 -18H771.545L914.701 52.5836L1076.28 132.253L1076.76 132.487L1148.57 97.0777V79.3748L1077.24 114.547L1076.76 114.756V114.783L1058.8 105.93L1148.57 61.6669V43.9612L1040.84 97.0777L1022.9 88.2295L1022.9 88.2274L1022.9 88.2252L1148.57 26.2604V8.55396L1004.94 79.3748L986.985 70.5194L987.015 70.5057L1148.57 -9.15109V-18H1130.62Z" fill="black" fill-opacity="0.03"/>
<path fill-rule="evenodd" clip-rule="evenodd" d="M986.649 -18L933.269 8.43035L932.798 8.66424H932.798H932.795V8.66207L878.946 -18H843.041L932.323 26.2067L932.798 26.4421L1022.55 -18H986.649Z" fill="black" fill-opacity="0.03"/>
<path fill-rule="evenodd" clip-rule="evenodd" d="M412.62 -18L359.24 8.43035L358.767 8.66569V8.66207L304.917 -18H269.012L358.295 26.2067L358.769 26.4421L448.525 -18H412.62Z" fill="black" fill-opacity="0.03"/>
</svg>
