<svg width="304" height="245" viewBox="0 0 304 245" fill="none"
     xmlns="http://www.w3.org/2000/svg">
    <mask id="mask0" mask-type="alpha" maskUnits="userSpaceOnUse" x="0"
          y="0"
          width="304" height="245">
        <rect width="304" height="245" fill="white"/>
    </mask>
    <g mask="url(#mask0)">
        <path fill-rule="evenodd" clip-rule="evenodd"
              d="M278.573 155.071C278.573 194.323 264.276 227.376 239.779 250.11H64.1639C39.6601 227.376 25.3716 194.323 25.3716 155.071C25.3716 139.173 28.038 123.971 32.9534 109.935C33.4605 108.487 33.9922 107.047 34.5483 105.623C34.7692 105.052 34.99 104.489 35.2272 103.918C37.3864 98.597 39.8728 93.4578 42.6699 88.5337C64.393 50.3244 104.592 24.9013 151.972 24.9013C223.439 24.9013 278.573 82.7489 278.573 155.071"
              fill="#FFE640"/>
        <mask id="mask1" mask-type="alpha" maskUnits="userSpaceOnUse" x="25"
              y="24" width="254" height="227">
            <path fill-rule="evenodd" clip-rule="evenodd"
                  d="M278.573 155.071C278.573 194.323 264.276 227.376 239.779 250.11H64.1639C39.6601 227.376 25.3716 194.323 25.3716 155.071C25.3716 139.173 28.038 123.971 32.9534 109.935C33.4605 108.487 33.9922 107.047 34.5483 105.623C34.7692 105.052 34.99 104.489 35.2272 103.918C37.3864 98.597 39.8728 93.4578 42.6699 88.5337C64.393 50.3244 104.592 24.9013 151.972 24.9013C223.439 24.9013 278.573 82.7489 278.573 155.071"
                  fill="white"/>
        </mask>
        <g mask="url(#mask1)">
            <mask id="mask2" mask-type="alpha" maskUnits="userSpaceOnUse"
                  x="37"
                  y="34" width="255" height="212">
                <path fill-rule="evenodd" clip-rule="evenodd"
                      d="M37.7079 161.771C37.7079 193.929 49.719 223.208 69.3819 245.592V245.592H260.258C279.898 223.208 291.932 193.929 291.932 161.771V161.771C291.932 91.5216 235.013 34.5792 164.798 34.5792V34.5792C94.6034 34.5792 37.7079 91.5216 37.7079 161.771V161.771Z"
                      fill="white"/>
            </mask>
            <g mask="url(#mask2)">
                <path fill-rule="evenodd" clip-rule="evenodd"
                      d="M383.472 214.158H117.407V63.4052C117.407 57.5919 122.116 52.8793 127.924 52.8793H372.955C378.764 52.8793 383.472 57.5919 383.472 63.4052V214.158Z"
                      fill="#B3B3B3"/>
            </g>
            <mask id="mask3" mask-type="alpha" maskUnits="userSpaceOnUse"
                  x="37"
                  y="34" width="255" height="212">
                <path fill-rule="evenodd" clip-rule="evenodd"
                      d="M69.3819 245.592H260.258C279.898 223.208 291.932 193.929 291.932 161.771C291.932 91.5216 235.013 34.5792 164.798 34.5792C94.6034 34.5792 37.7079 91.5216 37.7079 161.771C37.7079 193.929 49.719 223.208 69.3819 245.592Z"
                      fill="white"/>
            </mask>
            <g mask="url(#mask3)">
                <path fill-rule="evenodd" clip-rule="evenodd"
                      d="M122.798 200.853H378.082V60.2296H122.798V200.853Z"
                      fill="#404040"/>
                <path fill-rule="evenodd" clip-rule="evenodd"
                      d="M114.393 233.462C115.43 231.172 117.187 229.795 119.069 229.795H381.81C383.692 229.795 385.449 231.172 386.486 233.462"
                      fill="#D9D9D9"/>
                <path fill-rule="evenodd" clip-rule="evenodd"
                      d="M400.977 242.436L386.485 210.44C385.45 208.151 383.693 206.774 381.811 206.774H119.068C117.186 206.774 115.43 208.151 114.394 210.44L99.9021 242.436C97.4072 248.116 101.953 248.405 104.057 248.405H396.823C398.926 248.405 403.473 248.116 400.977 242.436"
                      fill="white"/>
                <path fill-rule="evenodd" clip-rule="evenodd"
                      d="M170.239 219.983L169.426 222.138V223.12H186.38C186.64 221.866 186.769 221.238 187.03 219.983V219.001L170.239 219.983Z"
                      fill="#666666"/>
                <path fill-rule="evenodd" clip-rule="evenodd"
                      d="M188.503 219.983L187.868 222.138V223.12H204.821C205.01 221.866 205.104 221.238 205.293 219.983V219.001L188.503 219.983Z"
                      fill="#666666"/>
                <path fill-rule="evenodd" clip-rule="evenodd"
                      d="M206.766 219.983L206.309 222.138V223.12H223.263C223.382 221.866 223.439 221.238 223.558 219.983V219.001C217.979 219.001 212.344 219.983 206.766 219.983"
                      fill="#666666"/>
                <path fill-rule="evenodd" clip-rule="evenodd"
                      d="M225.03 219.983C224.938 221.021 224.83 221.249 224.751 222.138V223.12H241.706C241.751 221.866 241.775 221.238 241.821 219.983V219.001C236.231 219.001 230.62 219.983 225.03 219.983"
                      fill="#666666"/>
                <path fill-rule="evenodd" clip-rule="evenodd"
                      d="M260.085 219.983H243.294C243.263 220.959 243.219 221.332 243.192 222.138V223.12H260.148V222.138C260.128 221.18 260.107 221.069 260.085 219.983"
                      fill="#666666"/>
                <path fill-rule="evenodd" clip-rule="evenodd"
                      d="M278.349 219.983C272.756 219.983 267.15 219.001 261.558 219.001V219.983C261.589 221.238 261.604 221.866 261.636 223.12H278.59V222.138C278.155 221.559 278.427 220.994 278.349 219.983"
                      fill="#666666"/>
                <path fill-rule="evenodd" clip-rule="evenodd"
                      d="M151.977 219.983C151.643 221.04 151.274 221.224 150.986 222.138V223.12H167.938C168.27 221.866 168.435 221.238 168.766 219.983V219.001C163.394 219.001 157.35 219.983 151.977 219.983"
                      fill="#666666"/>
                <path fill-rule="evenodd" clip-rule="evenodd"
                      d="M119.246 219.983C118.799 221.054 118.327 221.202 117.935 222.138V223.12H149.497C149.9 221.866 150.101 221.238 150.503 219.983V219.001C140.325 219.001 129.424 219.983 119.246 219.983"
                      fill="#666666"/>
                <path fill-rule="evenodd" clip-rule="evenodd"
                      d="M178.42 224.105L177.695 226.26V227.242H194.864C195.088 225.987 195.201 225.359 195.425 224.105V223.123L178.42 224.105Z"
                      fill="#666666"/>
                <path fill-rule="evenodd" clip-rule="evenodd"
                      d="M196.916 224.105L196.371 226.26V227.242H213.54C213.693 225.987 213.769 225.359 213.923 224.105V223.123C208.38 223.123 202.461 224.105 196.916 224.105"
                      fill="#666666"/>
                <path fill-rule="evenodd" clip-rule="evenodd"
                      d="M215.415 224.105L215.047 226.26V227.242H232.217C232.298 225.987 232.339 225.359 232.42 224.105V223.123C226.884 223.123 220.951 224.105 215.415 224.105"
                      fill="#666666"/>
                <path fill-rule="evenodd" clip-rule="evenodd"
                      d="M233.913 224.105C233.85 225.131 233.775 225.387 233.722 226.26V227.242H250.893C250.903 225.987 250.908 225.359 250.918 224.105V223.123C245.372 223.123 239.46 224.105 233.913 224.105"
                      fill="#666666"/>
                <path fill-rule="evenodd" clip-rule="evenodd"
                      d="M269.568 226.26C269.527 225.412 269.465 225.113 269.417 224.105H252.41C252.407 225.122 252.401 225.4 252.398 226.26V227.242H269.568"
                      fill="#666666"/>
                <path fill-rule="evenodd" clip-rule="evenodd"
                      d="M287.914 224.105C282.257 224.105 276.566 223.123 270.909 223.123V224.105C270.974 225.359 271.009 225.987 271.075 227.242H288.244V226.26C288.148 225.337 288.026 225.167 287.914 224.105"
                      fill="#666666"/>
                <path fill-rule="evenodd" clip-rule="evenodd"
                      d="M159.922 224.105C159.616 225.175 159.289 225.325 159.02 226.26V227.242H176.188C176.485 225.987 176.632 225.359 176.927 224.105V223.123C171.306 223.123 165.544 224.105 159.922 224.105"
                      fill="#666666"/>
                <path fill-rule="evenodd" clip-rule="evenodd"
                      d="M117.524 224.105L116.213 226.26V227.242H157.514C157.88 225.987 158.064 225.359 158.43 224.105V223.123C144.985 223.123 130.969 224.105 117.524 224.105"
                      fill="#666666"/>
                <path fill-rule="evenodd" clip-rule="evenodd"
                      d="M153.262 228.226C152.962 229.212 152.556 229.563 152.307 230.381V231.363H169.692C170.009 230.109 170.166 229.481 170.482 228.226V227.244C164.933 227.244 158.812 228.226 153.262 228.226"
                      fill="#666666"/>
                <path fill-rule="evenodd" clip-rule="evenodd"
                      d="M171.993 228.226L171.216 230.381V231.363H194.128C194.352 230.109 194.464 229.481 194.689 228.226V227.244L171.993 228.226Z"
                      fill="#666666"/>
                <path fill-rule="evenodd" clip-rule="evenodd"
                      d="M134.532 228.226L133.399 230.381V231.363H150.783C151.17 230.109 151.364 229.481 151.751 228.226V227.244C146.22 227.244 140.063 228.226 134.532 228.226"
                      fill="#666666"/>
                <path fill-rule="evenodd" clip-rule="evenodd"
                      d="M115.802 228.226C115.378 229.241 114.85 229.525 114.491 230.381V231.363H131.874C132.333 230.109 132.562 229.481 133.021 228.226V227.244L115.802 228.226Z"
                      fill="#666666"/>
                <path fill-rule="evenodd" clip-rule="evenodd"
                      d="M165.311 215.862L164.438 218.017V218.999H181.177C181.462 217.744 181.603 217.116 181.885 215.862V214.88L165.311 215.862Z"
                      fill="#666666"/>
                <path fill-rule="evenodd" clip-rule="evenodd"
                      d="M183.34 215.862L182.645 218.017V218.999H199.385C199.596 217.744 199.703 217.116 199.915 215.862V214.88L183.34 215.862Z"
                      fill="#666666"/>
                <path fill-rule="evenodd" clip-rule="evenodd"
                      d="M201.37 215.862L200.853 218.017V218.999H217.593C217.734 217.744 217.804 217.116 217.945 215.862V214.88L201.37 215.862Z"
                      fill="#666666"/>
                <path fill-rule="evenodd" clip-rule="evenodd"
                      d="M219.4 215.862L219.061 218.017V218.999H235.801C235.871 217.744 235.905 217.116 235.975 215.862V214.88C230.568 214.88 224.808 215.862 219.4 215.862"
                      fill="#666666"/>
                <path fill-rule="evenodd" clip-rule="evenodd"
                      d="M254.005 215.862H237.43C237.378 216.878 237.313 217.156 237.27 218.017V218.999H254.01V218.017C254.008 217.221 254.006 216.83 254.005 215.862"
                      fill="#666666"/>
                <path fill-rule="evenodd" clip-rule="evenodd"
                      d="M272.035 215.862C266.526 215.862 260.969 214.88 255.46 214.88V215.862C255.467 217.116 255.47 217.744 255.478 218.999H272.217V218.017C272.171 217.226 272.091 216.825 272.035 215.862"
                      fill="#666666"/>
                <path fill-rule="evenodd" clip-rule="evenodd"
                      d="M290.066 215.862C284.558 215.862 278.997 214.88 273.491 214.88V215.862C273.568 217.116 273.607 217.744 273.686 218.999H290.425V218.017C290.335 217.226 290.176 216.825 290.066 215.862"
                      fill="#666666"/>
                <path fill-rule="evenodd" clip-rule="evenodd"
                      d="M147.283 215.862C146.919 216.947 146.553 217.058 146.232 218.017V218.999H162.97C163.324 217.744 163.503 217.116 163.857 215.862V214.88L147.283 215.862Z"
                      fill="#666666"/>
                <path fill-rule="evenodd" clip-rule="evenodd"
                      d="M120.968 215.862C120.522 216.93 120.046 217.084 119.657 218.017V218.999H144.763C145.189 217.744 145.403 217.116 145.829 215.862V214.88C137.928 214.88 128.87 215.862 120.968 215.862"
                      fill="#666666"/>
                <path fill-rule="evenodd" clip-rule="evenodd"
                      d="M158.278 211.74L157.324 213.895V214.877H173.847C174.162 213.623 174.322 212.995 174.637 211.74V210.758L158.278 211.74Z"
                      fill="#666666"/>
                <path fill-rule="evenodd" clip-rule="evenodd"
                      d="M176.073 211.74L175.296 213.895V214.877H191.819C192.065 213.623 192.188 212.995 192.432 211.74V210.758L176.073 211.74Z"
                      fill="#666666"/>
                <path fill-rule="evenodd" clip-rule="evenodd"
                      d="M193.868 211.74L193.27 213.895V214.877H209.795C209.968 213.623 210.055 212.995 210.229 211.74V210.758L193.868 211.74Z"
                      fill="#666666"/>
                <path fill-rule="evenodd" clip-rule="evenodd"
                      d="M211.664 211.74L211.243 213.895V214.877H227.768C227.87 213.623 227.921 212.995 228.024 211.74V210.758L211.664 211.74Z"
                      fill="#666666"/>
                <path fill-rule="evenodd" clip-rule="evenodd"
                      d="M229.46 211.74L229.218 213.895V214.877H245.742C245.773 213.623 245.789 212.995 245.82 211.74V210.758C240.475 210.758 234.804 211.74 229.46 211.74"
                      fill="#666666"/>
                <path fill-rule="evenodd" clip-rule="evenodd"
                      d="M263.617 211.74H247.255C247.236 212.738 247.209 213.061 247.191 213.895V214.877H263.717V213.895C263.687 212.993 263.649 212.788 263.617 211.74"
                      fill="#666666"/>
                <path fill-rule="evenodd" clip-rule="evenodd"
                      d="M281.412 211.74C275.967 211.74 270.499 210.758 265.052 210.758V211.74C265.097 212.995 265.119 213.623 265.166 214.877H281.69V213.895C281.607 212.954 281.507 212.814 281.412 211.74"
                      fill="#666666"/>
                <path fill-rule="evenodd" clip-rule="evenodd"
                      d="M140.483 211.74C140.103 212.796 139.681 212.982 139.351 213.895V214.877H155.873C156.262 213.623 156.455 212.995 156.843 211.74V210.758L140.483 211.74Z"
                      fill="#666666"/>
                <path fill-rule="evenodd" clip-rule="evenodd"
                      d="M122.69 211.74C122.227 212.849 121.795 212.901 121.379 213.895V214.877H137.902C138.361 213.623 138.59 212.995 139.049 211.74V210.758C133.827 210.758 127.912 211.74 122.69 211.74"
                      fill="#666666"/>
                <path fill-rule="evenodd" clip-rule="evenodd"
                      d="M288.348 228.226H196.199L195.653 230.381V231.363H288.679V230.381L288.348 228.226Z"
                      fill="#666666"/>
                <path fill-rule="evenodd" clip-rule="evenodd"
                      d="M186.38 222.138H169.426C169.751 220.884 169.914 220.256 170.239 219.002H187.03C186.77 220.256 186.64 220.884 186.38 222.138"
                      fill="#D9D9D9"/>
                <path fill-rule="evenodd" clip-rule="evenodd"
                      d="M204.821 222.138H187.868C188.121 220.884 188.248 220.256 188.503 219.002H205.293C205.104 220.256 205.01 220.884 204.821 222.138"
                      fill="#D9D9D9"/>
                <path fill-rule="evenodd" clip-rule="evenodd"
                      d="M223.263 222.138H206.309C206.492 220.884 206.583 220.256 206.766 219.002H223.558C223.439 220.256 223.381 220.884 223.263 222.138"
                      fill="#D9D9D9"/>
                <path fill-rule="evenodd" clip-rule="evenodd"
                      d="M241.706 222.138H224.752C224.862 220.884 224.919 220.256 225.03 219.002H241.821C241.775 220.256 241.751 220.884 241.706 222.138"
                      fill="#D9D9D9"/>
                <path fill-rule="evenodd" clip-rule="evenodd"
                      d="M260.147 222.138H243.193C243.234 220.884 243.253 220.256 243.295 219.002H260.084C260.11 220.256 260.123 220.884 260.147 222.138"
                      fill="#D9D9D9"/>
                <path fill-rule="evenodd" clip-rule="evenodd"
                      d="M278.59 222.138H261.636C261.604 220.884 261.589 220.256 261.558 219.002H278.349C278.445 220.256 278.494 220.884 278.59 222.138"
                      fill="#D9D9D9"/>
                <path fill-rule="evenodd" clip-rule="evenodd"
                      d="M167.938 222.138H150.985C151.382 220.884 151.58 220.256 151.977 219.002H168.767C168.435 220.256 168.27 220.884 167.938 222.138"
                      fill="#D9D9D9"/>
                <path fill-rule="evenodd" clip-rule="evenodd"
                      d="M149.498 222.138H117.935C118.46 220.884 118.722 220.256 119.247 219.002H150.503C150.101 220.256 149.9 220.884 149.498 222.138"
                      fill="#D9D9D9"/>
                <path fill-rule="evenodd" clip-rule="evenodd"
                      d="M194.865 226.26H177.694C177.984 225.005 178.13 224.378 178.42 223.123H195.425C195.201 224.378 195.088 225.005 194.865 226.26"
                      fill="#D9D9D9"/>
                <path fill-rule="evenodd" clip-rule="evenodd"
                      d="M213.54 226.26H196.37C196.589 225.005 196.698 224.378 196.917 223.123H213.923C213.769 224.378 213.693 225.005 213.54 226.26"
                      fill="#D9D9D9"/>
                <path fill-rule="evenodd" clip-rule="evenodd"
                      d="M232.216 226.26H215.046C215.193 225.005 215.267 224.378 215.414 223.123H232.421C232.338 224.378 232.297 225.005 232.216 226.26"
                      fill="#D9D9D9"/>
                <path fill-rule="evenodd" clip-rule="evenodd"
                      d="M250.892 226.26H233.722C233.798 225.005 233.837 224.378 233.912 223.123H250.918C250.909 224.378 250.903 225.005 250.892 226.26"
                      fill="#D9D9D9"/>
                <path fill-rule="evenodd" clip-rule="evenodd"
                      d="M269.568 226.26H252.398C252.403 225.005 252.406 224.378 252.41 223.123H269.417C269.477 224.378 269.507 225.005 269.568 226.26"
                      fill="#D9D9D9"/>
                <path fill-rule="evenodd" clip-rule="evenodd"
                      d="M288.244 226.26H271.075C271.009 225.005 270.975 224.378 270.909 223.123H287.914C288.046 224.378 288.112 225.005 288.244 226.26"
                      fill="#D9D9D9"/>
                <path fill-rule="evenodd" clip-rule="evenodd"
                      d="M176.189 226.26H159.019C159.381 225.005 159.562 224.378 159.922 223.123H176.928C176.631 224.378 176.485 225.005 176.189 226.26"
                      fill="#D9D9D9"/>
                <path fill-rule="evenodd" clip-rule="evenodd"
                      d="M157.514 226.26H116.213C116.738 225.005 117 224.378 117.524 223.123H158.43C158.064 224.378 157.88 225.005 157.514 226.26"
                      fill="#D9D9D9"/>
                <path fill-rule="evenodd" clip-rule="evenodd"
                      d="M169.692 230.382H152.308C152.69 229.127 152.881 228.499 153.262 227.245H170.483C170.166 228.499 170.008 229.127 169.692 230.382"
                      fill="#D9D9D9"/>
                <path fill-rule="evenodd" clip-rule="evenodd"
                      d="M194.128 230.382H171.216C171.527 229.127 171.683 228.499 171.993 227.245H194.688C194.464 228.499 194.352 229.127 194.128 230.382"
                      fill="#D9D9D9"/>
                <path fill-rule="evenodd" clip-rule="evenodd"
                      d="M150.782 230.382H133.4C133.852 229.127 134.079 228.499 134.532 227.245H151.752C151.363 228.499 151.171 229.127 150.782 230.382"
                      fill="#D9D9D9"/>
                <path fill-rule="evenodd" clip-rule="evenodd"
                      d="M131.874 230.382H114.491C115.016 229.127 115.278 228.499 115.803 227.245H133.021C132.562 228.499 132.333 229.127 131.874 230.382"
                      fill="#D9D9D9"/>
                <path fill-rule="evenodd" clip-rule="evenodd"
                      d="M181.177 218.017H164.438C164.788 216.762 164.963 216.135 165.311 214.88H181.886C181.603 216.135 181.461 216.762 181.177 218.017"
                      fill="#D9D9D9"/>
                <path fill-rule="evenodd" clip-rule="evenodd"
                      d="M199.385 218.017H182.645C182.924 216.762 183.062 216.135 183.34 214.88H199.915C199.703 216.135 199.596 216.762 199.385 218.017"
                      fill="#D9D9D9"/>
                <path fill-rule="evenodd" clip-rule="evenodd"
                      d="M217.593 218.017H200.853C201.06 216.762 201.163 216.135 201.37 214.88H217.945C217.803 216.135 217.734 216.762 217.593 218.017"
                      fill="#D9D9D9"/>
                <path fill-rule="evenodd" clip-rule="evenodd"
                      d="M235.801 218.017H219.061C219.196 216.762 219.265 216.135 219.4 214.88H235.975C235.905 216.135 235.87 216.762 235.801 218.017"
                      fill="#D9D9D9"/>
                <path fill-rule="evenodd" clip-rule="evenodd"
                      d="M254.009 218.017H237.27C237.334 216.762 237.366 216.135 237.43 214.88H254.005C254.007 216.135 254.007 216.762 254.009 218.017"
                      fill="#D9D9D9"/>
                <path fill-rule="evenodd" clip-rule="evenodd"
                      d="M272.217 218.017H255.478C255.47 216.762 255.467 216.135 255.46 214.88H272.035C272.108 216.135 272.144 216.762 272.217 218.017"
                      fill="#D9D9D9"/>
                <path fill-rule="evenodd" clip-rule="evenodd"
                      d="M290.426 218.017H273.686C273.607 216.762 273.568 216.135 273.489 214.88H290.066C290.21 216.135 290.281 216.762 290.426 218.017"
                      fill="#D9D9D9"/>
                <path fill-rule="evenodd" clip-rule="evenodd"
                      d="M162.97 218.017H146.232C146.652 216.762 146.862 216.135 147.282 214.88H163.857C163.502 216.135 163.324 216.762 162.97 218.017"
                      fill="#D9D9D9"/>
                <path fill-rule="evenodd" clip-rule="evenodd"
                      d="M144.764 218.017H119.657C120.182 216.762 120.444 216.135 120.968 214.88H145.828C145.403 216.135 145.19 216.762 144.764 218.017"
                      fill="#D9D9D9"/>
                <path fill-rule="evenodd" clip-rule="evenodd"
                      d="M173.847 213.895H157.323C157.705 212.641 157.896 212.013 158.278 210.759H174.637C174.322 212.013 174.163 212.641 173.847 213.895"
                      fill="#D9D9D9"/>
                <path fill-rule="evenodd" clip-rule="evenodd"
                      d="M191.82 213.895H175.296C175.608 212.641 175.762 212.013 176.073 210.759H192.433C192.188 212.013 192.065 212.641 191.82 213.895"
                      fill="#D9D9D9"/>
                <path fill-rule="evenodd" clip-rule="evenodd"
                      d="M209.794 213.895H193.269C193.509 212.641 193.629 212.013 193.868 210.759H210.229C210.054 212.013 209.967 212.641 209.794 213.895"
                      fill="#D9D9D9"/>
                <path fill-rule="evenodd" clip-rule="evenodd"
                      d="M227.768 213.895H211.243C211.412 212.641 211.496 212.013 211.663 210.759H228.024C227.922 212.013 227.871 212.641 227.768 213.895"
                      fill="#D9D9D9"/>
                <path fill-rule="evenodd" clip-rule="evenodd"
                      d="M245.742 213.895H229.217C229.314 212.641 229.362 212.013 229.46 210.759H245.82C245.789 212.013 245.773 212.641 245.742 213.895"
                      fill="#D9D9D9"/>
                <path fill-rule="evenodd" clip-rule="evenodd"
                      d="M263.716 213.895H247.191C247.218 212.641 247.231 212.013 247.255 210.759H263.616C263.655 212.013 263.676 212.641 263.716 213.895"
                      fill="#D9D9D9"/>
                <path fill-rule="evenodd" clip-rule="evenodd"
                      d="M281.69 213.895H265.166C265.119 212.641 265.097 212.013 265.052 210.759H281.412C281.524 212.013 281.578 212.641 281.69 213.895"
                      fill="#D9D9D9"/>
                <path fill-rule="evenodd" clip-rule="evenodd"
                      d="M155.873 213.895H139.351C139.804 212.641 140.031 212.013 140.483 210.759H156.843C156.454 212.013 156.262 212.641 155.873 213.895"
                      fill="#D9D9D9"/>
                <path fill-rule="evenodd" clip-rule="evenodd"
                      d="M137.901 213.895H121.379C121.904 212.641 122.166 212.013 122.689 210.759H139.048C138.589 212.013 138.36 212.641 137.901 213.895"
                      fill="#D9D9D9"/>
                <path fill-rule="evenodd" clip-rule="evenodd"
                      d="M288.678 230.382H195.653C195.871 229.127 195.981 228.499 196.199 227.245H288.348C288.479 228.499 288.547 229.127 288.678 230.382"
                      fill="#D9D9D9"/>
                <path fill-rule="evenodd" clip-rule="evenodd"
                      d="M278.506 245.659H222.374L224.259 233.683H276.62L278.506 245.659Z"
                      fill="#D9D9D9"/>
                <path fill-rule="evenodd" clip-rule="evenodd"
                      d="M378.082 189.217L122.798 82.5514V60.2296H378.082V189.217Z"
                      fill="#1A1A1A"/>
                <path fill-rule="evenodd" clip-rule="evenodd"
                      d="M251.016 158.024H218.937C211.293 158.024 205.096 151.822 205.096 144.171C205.096 136.521 211.293 130.319 218.937 130.319H251.016C258.66 130.319 264.857 136.521 264.857 144.171C264.857 151.822 258.66 158.024 251.016 158.024"
                      fill="#FFDD00"/>
            </g>
        </g>
        <path fill-rule="evenodd" clip-rule="evenodd"
              d="M37.5699 198.328C37.0666 198.884 36.4804 199.406 35.8633 199.888C35.2407 200.363 34.5817 200.796 33.9017 201.161C33.2206 201.523 32.5218 201.83 31.8241 202.052C31.1243 202.272 30.4288 202.413 29.7565 202.47C29.0776 202.519 28.3546 202.499 27.6547 202.391C26.2461 202.186 24.8475 201.645 23.5736 200.797C22.9377 200.375 22.3217 199.892 21.7521 199.336C21.1825 198.781 20.6438 198.172 20.1515 197.513C19.6646 196.846 19.222 196.134 18.8113 195.393C18.4194 194.638 18.043 193.866 17.7328 193.053C17.0848 191.438 16.6311 189.709 16.3275 187.936C16.0218 186.161 15.8562 184.337 15.8407 182.497C15.8562 180.656 16.0218 178.833 16.3275 177.059C16.6311 175.285 17.0848 173.554 17.7328 171.941C18.043 171.127 18.4194 170.355 18.8113 169.601C19.222 168.859 19.6646 168.147 20.1515 167.481C20.6438 166.822 21.1825 166.213 21.7521 165.657C22.3217 165.102 22.9377 164.619 23.5736 164.196C24.8475 163.348 26.2461 162.808 27.6547 162.601C28.3546 162.495 29.0776 162.476 29.7565 162.525C30.4288 162.581 31.1243 162.722 31.8241 162.942C32.5218 163.164 33.2206 163.47 33.9017 163.832C34.5817 164.198 35.2407 164.631 35.8633 165.106C36.4804 165.587 37.0666 166.109 37.5699 166.666C38.0744 167.212 38.5127 167.805 38.7666 168.314L46.0888 162.901C45.1781 161.828 44.2486 161.002 43.2959 160.237C42.3388 159.483 41.3608 158.815 40.3363 158.224C39.3185 157.627 38.2599 157.103 37.156 156.657C36.0565 156.205 34.9073 155.835 33.7063 155.574C32.5108 155.303 31.2578 155.145 29.9718 155.143C28.6935 155.153 27.4549 155.296 26.2351 155.582C25.0208 155.865 23.8451 156.283 22.7412 156.818C21.6384 157.354 20.6085 158.004 19.6558 158.728C18.7065 159.455 17.83 160.258 17.0495 161.125C16.2668 161.992 15.5736 162.915 14.941 163.863C14.3195 164.819 13.7764 165.807 13.2896 166.812C12.8271 167.824 12.401 168.847 12.0643 169.889C10.6943 174.055 10.2285 178.325 10.2671 182.497C10.2285 186.669 10.6943 190.939 12.0643 195.104C12.401 196.146 12.8271 197.17 13.2896 198.182C13.7764 199.187 14.3195 200.175 14.941 201.129C15.5736 202.078 16.2668 203.002 17.0495 203.869C17.83 204.736 18.7065 205.538 19.6558 206.266C20.6085 206.991 21.6384 207.64 22.7412 208.177C23.8451 208.711 25.0208 209.128 26.2351 209.413C27.4549 209.697 28.6935 209.84 29.9718 209.85C31.2578 209.849 32.5108 209.691 33.7063 209.421C34.9073 209.158 36.0565 208.788 37.156 208.337C38.2599 207.89 39.3185 207.368 40.3363 206.77C41.3608 206.178 42.3388 205.511 43.2959 204.758C44.2486 203.993 45.1781 203.165 46.0888 202.093L38.7666 196.681C38.5127 197.188 38.0744 197.782 37.5699 198.328"
              fill="#35B6B4"/>
        <path fill-rule="evenodd" clip-rule="evenodd"
              d="M38.2896 150.441V213.528C38.2896 219.226 51.4967 223.845 67.787 223.845C83.8951 223.845 96.9863 219.329 97.2766 213.719C92.2936 215.068 86.0433 215.87 79.2587 215.87C62.9684 215.87 49.7613 211.249 49.7613 205.551V150.441H38.2896Z"
              fill="#35B6B4"/>
        <path fill-rule="evenodd" clip-rule="evenodd"
              d="M49.3901 150.441L49.4519 211.427C49.4519 217.126 62.4206 218.865 76.4324 218.865C90.4432 218.865 97.2763 213.719 97.2763 213.719C97.2763 213.719 97.284 213.592 97.284 213.528V150.441H49.3901Z"
              fill="#35B6B4"/>
        <path fill-rule="evenodd" clip-rule="evenodd"
              d="M97.2848 150.441C97.2848 153.801 84.0788 156.526 67.7874 156.526C51.496 156.526 38.29 153.801 38.29 150.441C38.29 147.08 51.496 144.355 67.7874 144.355C84.0788 144.355 97.2848 147.08 97.2848 150.441"
              fill="#FEF7D9"/>
        <path fill-rule="evenodd" clip-rule="evenodd"
              d="M93.4292 152.135C92.63 152.589 89.6461 154.063 81.5313 154.917C81.485 151.98 73.6638 149.552 63.4671 149.124C64.8757 149.08 66.3207 149.058 67.7877 149.058C78.7738 149.058 88.3523 150.296 93.4292 152.135"
              fill="#805607"/>
        <path fill-rule="evenodd" clip-rule="evenodd"
              d="M85.7525 154.512C82.2223 154.882 73.5014 155.541 67.7887 155.541C48.9418 155.541 43.2964 152.786 42.1484 152.136C46.5452 150.542 54.3233 149.401 63.467 149.125C73.6637 149.551 85.7062 151.575 85.7525 154.512"
              fill="#996709"/>
        <path fill-rule="evenodd" clip-rule="evenodd"
              d="M67.7878 155.294C59.9876 155.294 40.3701 153.809 40.3701 150.442C40.3701 146.746 59.9876 145.343 67.7878 145.343C75.5879 145.343 95.2054 146.746 95.2054 150.442C95.2054 153.809 75.5879 155.294 67.7878 155.294M67.7878 144.356C51.4952 144.356 38.2915 147.081 38.2915 150.442C38.2915 151.275 39.1028 152.068 40.5721 152.794C45.0264 154.986 55.5344 156.526 67.7878 156.526C80.0411 156.526 90.5491 154.986 95.0034 152.794C96.4727 152.068 97.284 151.275 97.284 150.442C97.284 147.081 84.0792 144.356 67.7878 144.356"
              fill="#F1E9C4"/>
        <path fill-rule="evenodd" clip-rule="evenodd"
              d="M65.4429 147.598C70.7638 146.602 71.7584 141.907 71.7584 140.148C71.7584 134.525 67.4664 134.326 66.7908 130.225C64.2618 114.879 93.4291 112.872 93.4291 96.5447C93.4291 72.9062 50.6043 76.5891 52.1343 63.6803C52.1343 63.6803 45.6776 69.9609 45.6776 77.4029C45.6776 84.845 54.4558 89.7581 54.4558 99.0648C54.4558 108.372 45.6765 109.974 45.6765 118.881C45.6765 132.663 64.1359 137.449 66.4342 142.789C67.7358 145.815 65.4429 147.598 65.4429 147.598"
              fill="white"/>
        <path fill-rule="evenodd" clip-rule="evenodd"
              d="M214.216 162.472L216.576 156.426L219.396 158.761C219.615 158.943 219.914 158.975 220.163 158.843C220.412 158.709 220.57 158.435 220.567 158.137L220.424 142.267C220.421 141.956 220.245 141.676 219.977 141.556C219.709 141.436 219.4 141.498 219.192 141.714L208.546 152.749C208.344 152.956 208.273 153.267 208.359 153.551C208.446 153.834 208.677 154.04 208.952 154.08L212.482 154.592L210.123 160.637C210.048 160.828 210.047 161.042 210.121 161.234C210.193 161.425 210.335 161.577 210.513 161.656L213.266 162.891C213.636 163.057 214.062 162.869 214.216 162.472"
              fill="#1A1A1A"/>
        <path fill-rule="evenodd" clip-rule="evenodd"
              d="M212.685 162.472C212.531 162.869 212.105 163.057 211.736 162.891L208.982 161.656C208.804 161.577 208.663 161.425 208.59 161.234C208.516 161.042 208.517 160.828 208.592 160.637L210.952 154.592L207.422 154.08C207.147 154.04 206.916 153.834 206.829 153.551C206.743 153.267 206.814 152.956 207.014 152.749L217.662 141.714C217.869 141.498 218.179 141.436 218.446 141.556C218.715 141.676 218.89 141.956 218.892 142.267L219.036 158.137C219.038 158.435 218.882 158.709 218.632 158.841C218.384 158.975 218.085 158.943 217.865 158.761L215.046 156.426L212.685 162.472Z"
              fill="white"/>
    </g>
</svg>