<?xml version="1.0" encoding="UTF-8"?>
<svg width="304px" height="245px" viewBox="0 0 304 245" version="1.1" xmlns="http://www.w3.org/2000/svg" xmlns:xlink="http://www.w3.org/1999/xlink">
    <title>7B68731D-ADEF-4463-8396-84C9C675537E@1x</title>
    <defs>
        <rect id="path-1" x="0" y="0" width="304" height="244.657534"></rect>
    </defs>
    <g id="Spot-v2" stroke="none" stroke-width="1" fill="none" fill-rule="evenodd">
        <g id="Spot-/-mobile-for-US---w304">
            <g id="Oval">
                <mask id="mask-2" fill="white">
                    <use xlink:href="#path-1"></use>
                </mask>
                <g id="Mask"></g>
                <g id="Group-117" mask="url(#mask-2)" fill="#FFE640">
                    <g transform="translate(26.027397, 24.986301)" id="Fill-1">
                        <path d="M17.2061918,63.2559452 C14.4243836,68.1511781 11.9507397,73.2598356 9.804,78.5496438 C9.56767123,79.1180822 9.348,79.6771507 9.12832877,80.2445479 C8.57446575,81.6604384 8.04663014,83.0919452 7.54065753,84.5307397 C2.65271233,98.4845479 -1.47948624e-14,113.596055 -1.47948624e-14,129.39989 C-1.47948624e-14,166.156822 12.6149589,197.440712 34.4529863,219.837808 L217.40789,219.837808 C239.239671,197.440712 251.861918,166.156822 251.861918,129.39989 C251.861918,57.5049315 197.02011,-1.47948624e-14 125.930959,-1.47948624e-14 C78.8005479,-1.47948624e-14 38.8151781,25.2726027 17.2061918,63.2559452 Z"></path>
                    </g>
                </g>
            </g>
            <g id="Phone" transform="translate(96.821918, 10.410959)">
                <g id="Group-725" transform="translate(0.000000, 5.822787)" fill="#808080">
                    <path d="M108.908431,5.06294045 C108.622247,4.53188754 108.28783,4.03328184 107.909467,3.57144967 C107.720822,3.3399928 107.521458,3.11827009 107.311375,2.90628156 C105.632858,1.2125364 103.314447,0.165572603 100.753798,0.165572603 L10.0474433,0.165572603 C6.52534508,0.165572603 3.46307041,2.14593491 1.8917387,5.06294045 C1.17788679,6.38895039 0.772727588,7.9085621 0.772727588,9.52335234 L0.772727588,216.136466 C0.772727588,221.305309 3.8982414,229.195393 16.7690129,229.195393 L42.0239363,229.195393 L68.7773055,229.195393 L94.0322288,229.195393 C106.901929,229.195393 110.027442,221.305309 110.027442,216.136466 L110.027442,9.52335234 C110.027442,7.9085621 109.622283,6.38895039 108.908431,5.06294045" id="Fill-723"></path>
                </g>
                <g id="Group-728" fill="#FFFFFF">
                    <path d="M100.75337,229.425036 L10.0470146,229.425036 C4.9246447,229.425036 0.773370698,225.235018 0.773370698,220.067256 L0.773370698,9.75299526 C0.773370698,4.58523387 4.9246447,0.395215522 10.0470146,0.395215522 L100.75337,0.395215522 C105.87574,0.395215522 110.028085,4.58523387 110.028085,9.75299526 L110.028085,220.067256 C110.028085,225.235018 105.87574,229.425036 100.75337,229.425036" id="Fill-726"></path>
                </g>
                <g id="Group-731" transform="translate(3.194804, 15.974019)" fill="#404040">
                    <path d="M95.66718,198.430981 L8.74445436,198.430981 C4.30378093,198.430981 0.703437689,194.799054 0.703437689,190.318093 L0.703437689,8.1550443 C0.703437689,3.6740825 4.30378093,0.0421564333 8.74445436,0.0421564333 L95.66718,0.0421564333 C100.107853,0.0421564333 103.707125,3.6740825 103.707125,8.1550443 L103.707125,190.318093 C103.707125,194.799054 100.107853,198.430981 95.66718,198.430981" id="Fill-729"></path>
                </g>
                <g id="Group-734" transform="translate(33.545439, 3.194804)" fill="#CCCCCC">
                    <path d="M41.9493632,2.90787872 L1.76035759,2.90787872 C1.10224186,2.90787872 0.56953254,2.37033636 0.56953254,1.70624981 C0.56953254,1.04324485 1.10224186,0.50462091 1.76035759,0.50462091 L41.9493632,0.50462091 C42.6074789,0.50462091 43.1401882,1.04324485 43.1401882,1.70624981 C43.1401882,2.37033636 42.6074789,2.90787872 41.9493632,2.90787872" id="Fill-732"></path>
                </g>
                <g id="Group-737" transform="translate(9.584411, 5.822787)" fill="#000000">
                    <path d="M2.34991643,4.69963969 C1.14086994,4.69963969 0.160127434,3.70999932 0.160127434,2.48998366 C0.160127434,1.26996799 1.14086994,0.280327622 2.34991643,0.280327622 C3.55896293,0.280327622 4.53970543,1.26996799 4.53970543,2.48998366 C4.53970543,3.70999932 3.55896293,4.69963969 2.34991643,4.69963969" id="Fill-735"></path>
                </g>
                <g id="Group-740" transform="translate(45.757834, 218.844054)" fill="#CCCCCC">
                    <path d="M19.0702414,0.543108311 C19.1452709,1.80530537 19.1784982,3.06750243 19.2342344,4.32969949 C19.2835395,4.96890982 19.1366961,5.67950405 18.773339,6.24733049 C18.4099819,6.81732008 17.860123,7.27590753 17.2137976,7.50411968 C16.8933146,7.61876654 16.5471071,7.67608998 16.2105463,7.68582414 L15.2726778,7.69988461 L13.3958689,7.72367924 L9.64225116,7.742066 L5.88970526,7.72476081 L4.01289638,7.69988461 L3.07502787,7.68690572 C2.73739521,7.67717155 2.39118774,7.61984812 2.07070468,7.50520126 C1.42437929,7.27698911 0.873448528,6.81840166 0.51116332,6.24841207 C0.147806261,5.67950405 -0.000109001234,4.96890982 0.050267936,4.32969949 C0.106004122,3.06750243 0.138159614,1.80530537 0.215332794,0.543108311 C0.290362275,1.80530537 0.323589617,3.06750243 0.379325803,4.32969949 C0.369679155,4.95160464 0.527241065,5.52592052 0.86380188,6.01046575 C1.20143455,6.48527681 1.68698247,6.84760416 2.23362583,7.00984029 C2.50694751,7.09095835 2.78562844,7.12340557 3.07502787,7.11907928 L4.01289638,7.10610039 L5.88970526,7.08230576 L9.64225116,7.06391899 L13.3958689,7.08230576 L15.2726778,7.10718196 L16.2105463,7.12016085 C16.4988739,7.12448715 16.7775548,7.0931215 17.0519483,7.01092186 C17.5985917,6.84868573 18.0852115,6.48635839 18.4217723,6.01154732 C18.7583331,5.5270021 18.9148232,4.95160464 18.9062484,4.32969949 C18.9609127,3.06750243 18.99414,1.80530537 19.0702414,0.543108311" id="Fill-738"></path>
                </g>
                <g id="Group-743" transform="translate(10.614993, 6.389607)" fill="#707077">
                    <path d="M1.62127463,1.24663903 C1.62127463,1.56678499 1.36403069,1.82636279 1.04676317,1.82636279 C0.729495652,1.82636279 0.473323566,1.56678499 0.473323566,1.24663903 C0.473323566,0.926493075 0.729495652,0.666915274 1.04676317,0.666915274 C1.36403069,0.666915274 1.62127463,0.926493075 1.62127463,1.24663903" id="Fill-741"></path>
                </g>
                <g id="Group-746" transform="translate(4.792206, 12.779215)" fill="#FFFFFF">
                    <polygon id="Fill-744" points="0.502870402 204.866289 2.81377842 204.866289 2.81377842 0.368733595 0.502870402 0.368733595"></polygon>
                </g>
                <g id="Group-749" transform="translate(7.987009, 12.779215)" fill="#FFFFFF">
                    <polygon id="Fill-747" points="1.06597184 204.866289 1.93845752 204.866289 1.93845752 0.368733595 1.06597184 0.368733595"></polygon>
                </g>
                <g id="Group-764" transform="translate(33.545439, 105.428522)" fill="#FFDD00">
                    <path d="M33.2798138,19.9177125 L10.4290495,19.9177125 C4.98405283,19.9177125 0.5691038,15.4627085 0.5691038,9.96831172 C0.5691038,4.47391492 4.98405283,0.0199924826 10.4290495,0.0199924826 L33.2798138,0.0199924826 C38.7248105,0.0199924826 43.1397595,4.47391492 43.1397595,9.96831172 C43.1397595,15.4627085 38.7248105,19.9177125 33.2798138,19.9177125" id="Fill-750"></path>
                </g>
            </g>
        </g>
    </g>
</svg>